<?xml version="1.0" standalone="no"?>
<!DOCTYPE svg PUBLIC "-//W3C//DTD SVG 1.1//EN" "http://www.w3.org/Graphics/SVG/1.1/DTD/svg11.dtd" >
<svg>
<metadata>
Created by convertio.co Fri Mar 31 2017
 By Vasiliy Altunin (https://github.com/vasiliyaltunin)
 based on CHESS MERIDA font by ARMANDO HERNANDEZ MARROQUIN (mquin@sancristobal.podernet.com.mx)
</metadata>
<defs>
<font id="ChessMerida" horiz-adv-x="2048" >
  <font-face 
    font-family="Chess Merida"
    font-weight="400"
    font-stretch="normal"
    units-per-em="2048"
    panose-1="2 11 6 3 5 3 2 2 2 4"
    ascent="1638"
    descent="-410"
    x-height="1653"
    cap-height="2047"
    bbox="-0.00683594 -0.00585938 2048 2049"
    underline-thickness="0"
    underline-position="0"
    unicode-range="U+0008-U+2248"
  />
<missing-glyph 
d="M19 30c8.66699 0 13 -4 13 -12s-4.33301 -12 -13 -12c-8 0 -12 4 -12 12s4 12 12 12z" />
    <glyph glyph-name=".notdef" unicode="&#xa5;" 
d="M19 30c8.66699 0 13 -4 13 -12s-4.33301 -12 -13 -12c-8 0 -12 4 -12 12s4 12 12 12z" />
    <glyph glyph-name=".notdef" unicode="&#xe01e;" 
d="M19 30c8.66699 0 13 -4 13 -12s-4.33301 -12 -13 -12c-8 0 -12 4 -12 12s4 12 12 12z" />
    <glyph glyph-name=".notdef" unicode="&#x25ca;" 
d="M19 30c8.66699 0 13 -4 13 -12s-4.33301 -12 -13 -12c-8 0 -12 4 -12 12s4 12 12 12z" />
    <glyph glyph-name=".notdef" unicode="&#x2260;" 
d="M19 30c8.66699 0 13 -4 13 -12s-4.33301 -12 -13 -12c-8 0 -12 4 -12 12s4 12 12 12z" />
    <glyph glyph-name=".notdef" unicode="&#x222b;" 
d="M19 30c8.66699 0 13 -4 13 -12s-4.33301 -12 -13 -12c-8 0 -12 4 -12 12s4 12 12 12z" />
    <glyph glyph-name=".notdef" unicode="&#x221e;" 
d="M19 30c8.66699 0 13 -4 13 -12s-4.33301 -12 -13 -12c-8 0 -12 4 -12 12s4 12 12 12z" />
    <glyph glyph-name=".notdef" unicode="&#x2211;" 
d="M19 30c8.66699 0 13 -4 13 -12s-4.33301 -12 -13 -12c-8 0 -12 4 -12 12s4 12 12 12z" />
    <glyph glyph-name=".notdef" unicode="&#x220f;" 
d="M19 30c8.66699 0 13 -4 13 -12s-4.33301 -12 -13 -12c-8 0 -12 4 -12 12s4 12 12 12z" />
    <glyph glyph-name=".notdef" unicode="&#x2202;" 
d="M19 30c8.66699 0 13 -4 13 -12s-4.33301 -12 -13 -12c-8 0 -12 4 -12 12s4 12 12 12z" />
    <glyph glyph-name=".notdef" unicode="&#x2122;" 
d="M19 30c8.66699 0 13 -4 13 -12s-4.33301 -12 -13 -12c-8 0 -12 4 -12 12s4 12 12 12z" />
    <glyph glyph-name=".notdef" unicode="&#x20ac;" 
d="M19 30c8.66699 0 13 -4 13 -12s-4.33301 -12 -13 -12c-8 0 -12 4 -12 12s4 12 12 12z" />
    <glyph glyph-name=".notdef" unicode="&#x2044;" 
d="M19 30c8.66699 0 13 -4 13 -12s-4.33301 -12 -13 -12c-8 0 -12 4 -12 12s4 12 12 12z" />
    <glyph glyph-name=".notdef" unicode="&#x3c0;" 
d="M19 30c8.66699 0 13 -4 13 -12s-4.33301 -12 -13 -12c-8 0 -12 4 -12 12s4 12 12 12z" />
    <glyph glyph-name=".notdef" unicode="&#x3a9;" 
d="M19 30c8.66699 0 13 -4 13 -12s-4.33301 -12 -13 -12c-8 0 -12 4 -12 12s4 12 12 12z" />
    <glyph glyph-name=".notdef" unicode="&#x178;" 
d="M19 30c8.66699 0 13 -4 13 -12s-4.33301 -12 -13 -12c-8 0 -12 4 -12 12s4 12 12 12z" />
    <glyph glyph-name=".notdef" unicode="&#x131;" 
d="M19 30c8.66699 0 13 -4 13 -12s-4.33301 -12 -13 -12c-8 0 -12 4 -12 12s4 12 12 12z" />
    <glyph glyph-name=".notdef" unicode="&#xff;" 
d="M19 30c8.66699 0 13 -4 13 -12s-4.33301 -12 -13 -12c-8 0 -12 4 -12 12s4 12 12 12z" />
    <glyph glyph-name="uni001D" horiz-adv-x="0" 
 />
    <glyph glyph-name="uni001D" horiz-adv-x="0" 
 />
    <glyph glyph-name="uni001D" horiz-adv-x="0" 
 />
    <glyph glyph-name="space" unicode="&#x9;" 
 />
    <glyph glyph-name="space" unicode=" " 
 />
    <glyph glyph-name="uni00A0" unicode="&#xd;" 
 />
    <glyph glyph-name="uni00A0" unicode="&#xa0;" 
 />
    <glyph glyph-name="exclam" unicode="!" 
d="M1912 135h135v-100h-32v-35h-103v135zM1639 410h408v-171h-238v-239h-170v410z" />
    <glyph glyph-name="quotedbl" unicode="&#x22;" 
d="M0 135h2048v-100h-2048v100zM0 410h2047v-171h-2047v171z" />
    <glyph glyph-name="numbersign" unicode="#" 
d="M135 135v-135h-103v35h-32v100h135zM409 410v-410h-171v239h-238v171h409z" />
    <glyph glyph-name="dollar" unicode="$" 
d="M1915 0l1 2049h99v-2049h-100zM1640 0l2 2049h171l-1 -2049h-172z" />
    <glyph glyph-name="percent" unicode="%" 
d="M132 0h-100v2049h100v-2049zM407 0h-171l-1 2049h171z" />
    <glyph glyph-name="parenleft" unicode="(" 
d="M0 1913v100h2048v-100h-2048zM0 1638v171h2047v-171h-2047z" />
    <glyph glyph-name="parenright" unicode=")" 
d="M135 1913h-135v100h32v36h103v-136zM409 1638h-409v171h238v240h171v-411z" />
    <glyph glyph-name="asterisk" unicode="*" 
d="M19 30c8.66699 0 13 -4 13 -12s-4.33301 -12 -13 -12c-8 0 -12 4 -12 12s4 12 12 12z" />
    <glyph glyph-name="plus" unicode="+" 
d="M0 585l1462 1462h45l-1507 -1510v48zM0 1413l632 634h45l-677 -677v43zM0 1691l356 356h45l-401 -400v44zM0 1136l909 911h45l-954 -953v42zM0 858l1185 1189h45l-1230 -1233v44zM0 309l1738 1738h45l-1783 -1786v48zM1949 0h-43l142 140v-45zM0 1923v44l79 80h45z
M1630 0l418 416v-46l-371 -370h-47zM1353 0l695 691v-45l-646 -646h-49zM1077 0l971 970v-47l-924 -923h-47zM794 0l1254 1251v-45l-1209 -1206h-45zM518 0l1530 1528v-45l-1485 -1483h-45zM241 0l1807 1804v-45l-1762 -1759h-45zM0 32l2015 2015c22 0 33 -2.33301 33 -7
l-2035 -2040c-8.66699 0 -13 10.667 -13 32z" />
    <glyph glyph-name="period" unicode="." 
d="M1024 1305c77.333 0 143.5 -27.5 198.5 -82.5s82.5 -121.167 82.5 -198.5c0 -78 -27.5 -144.333 -82.5 -199s-121.167 -82 -198.5 -82c-78 0 -144.333 27.333 -199 82s-82 121 -82 199c0 77.333 27.333 143.5 82 198.5s121 82.5 199 82.5z" />
    <glyph glyph-name="slash" unicode="/" 
d="M1912 1913v136h103v-36h32v-100h-135zM1639 1638v411h170v-240h238v-171h-408z" />
    <glyph glyph-name="one" unicode="1" 
d="M1912 135h135v-100h-32v-35h-103v135z" />
    <glyph glyph-name="two" unicode="2" 
d="M0 135h2048v-100h-2048v100z" />
    <glyph glyph-name="three" unicode="3" 
d="M135 135v-135h-103v35h-32v100h135z" />
    <glyph glyph-name="four" unicode="4" 
d="M1915 0l1 2049h99v-2049h-100z" />
    <glyph glyph-name="five" unicode="5" 
d="M32 0v2049h100v-2049h-100z" />
    <glyph glyph-name="seven" unicode="7" 
d="M1913 1913v136h103v-36h32v-100h-135z" />
    <glyph glyph-name="eight" unicode="8" 
d="M0 2013h2048v-100h-2048v100z" />
    <glyph glyph-name="nine" unicode="9" 
d="M135 1913h-135v100h32v36h103v-136z" />
    <glyph glyph-name="colon" unicode=":" 
d="M518 0l1530 1528v-45l-1485 -1483h-45zM794 0l1254 1251v-45l-1209 -1206h-45zM1077 0l971 970v-47l-924 -923h-47zM1353 0l695 691v-45l-646 -646h-49zM1630 0l418 416v-46l-371 -370h-47zM0 1923v44l79 80h45zM1949 0h-43l142 140v-45zM0 858l1185 1189h45l-1230 -1233
v44zM0 1136l909 911h45l-954 -953v42zM0 1691l356 356h45l-401 -400v44zM0 1413l632 634h45l-677 -677v43zM0 585l1462 1462h45l-1507 -1510v48zM1119 1381c-20 4.66699 -33 7.33301 -39 8l658 658h45zM1294 1276l754 764c0 4.66699 -11 7 -33 7l-747 -748
c8 -6 16.667 -13.667 26 -23zM1385 1097l663 662v45l-671 -672c4 -13.333 6.66699 -25 8 -35zM950 661.999l-664 -662h-45l674 671c6 -1.33301 11.833 -3 17.5 -5s11.5 -3.33301 17.5 -4zM773 753.999l-760 -754c-8.66699 0 -13 10.667 -13 32l748 747
c3.33301 -4 7.33301 -8.33301 12 -13s9 -8.66699 13 -12zM667 927.999l-667 -667.001v48l659 659c0 -5.33301 2.66699 -18.666 8 -39.999zM1024 1305c77.333 0 143.5 -27.5 198.5 -82.5s82.5 -121.167 82.5 -198.5c0 -78 -27.5 -144.333 -82.5 -199s-121.167 -82 -198.5 -82
c-78 0 -144.333 27.333 -199 82s-82 121 -82 199c0 77.333 27.333 143.5 82 198.5s121 82.5 199 82.5z" />
    <glyph glyph-name="question" unicode="?" 
d="M1564 451c-1.33301 -9.33301 0.998047 -16.333 6.99805 -21c2.66699 -6 10 -10 22 -12c6.66699 -2 14.334 -0.666992 23.001 4c6.66699 2.66699 11.334 9.66699 14.001 21c1.33301 7.33301 0.333008 15 -3 23c-4.66699 7.33301 -12.667 12.333 -24 15
c-10 3.33301 -18.667 2 -26 -4c-8 -6.66699 -12.667 -14 -14 -22c0.666992 -0.666992 1 -2 1 -4zM1538 351c-3.33301 -10.667 -1.66602 -19.333 5.00098 -26c2 -4 10.667 -8.33301 26 -13c12 -2.66699 21.333 -1.66699 28 3c8 4.66699 13 12.334 15 23.001
s0.333008 19 -5 25c-6.66699 7.33301 -15.334 12 -26.001 14c-12 2.66699 -21.333 1.66699 -28 -3c-8.66699 -4.66699 -13.667 -12.334 -15 -23.001zM1547 408.001c-15.333 4.66699 -25.665 11.6699 -30.998 21.0029c-7.33301 4.66699 -12 12.667 -14 24
c-2 5.33301 -2.33301 14 -1 26c1.33301 6.66699 5.33301 14.667 12 24c10 8.66699 18.333 14 25 16c7.33301 3.33301 18.333 4.66602 33 3.99902c10 0.666992 24.333 -0.666016 43 -3.99902c16 -4 31.333 -9.66699 46 -17c11.333 -5.33301 21.333 -13.666 30 -24.999
c6.66699 -12 9 -24.667 7 -38c-2.66699 -10.667 -7.33398 -20 -14.001 -28c-10 -8.66699 -18.333 -14 -25 -16c-10.667 -4.66699 -20.334 -6.33398 -29.001 -5.00098l-1 -1c16.667 -6.66699 30.667 -16 42 -28c10 -14 13.333 -30.667 10 -50
c-4.66699 -16 -13 -27.667 -25 -35c-11.333 -8.66699 -25.333 -13.334 -42 -14.001c-18 -1.33301 -35.667 -0.333008 -53 3c-16 2.66699 -34.333 9 -55 19c-14.667 8.66699 -25.667 20 -33 34s-9.33301 27.333 -6 40v0.5v0.5h0.5h0.5c2 9.33301 6 17.666 12 24.999
s14.667 13.333 26 18c9.33301 3.33301 23 4.66602 41 3.99902zM1382 472.004c2 12.667 -0.333984 23.001 -7.00098 31.001c-6.66699 7.33301 -15.667 11.666 -27 12.999c-12 1.33301 -21.667 -0.666992 -29 -6c-6.66699 -5.33301 -11.667 -14 -15 -26
c-1.33301 -10.667 0.333984 -20 5.00098 -28c6.66699 -8.66699 15.667 -14 27 -16c8 -1.33301 15.333 0 22 4c6.66699 2 12 5.66699 16 11c4 4 6.66699 9.66699 8 17zM1230 388.005l63.999 -9c-1.33301 -7.33301 1.33398 -13 8.00098 -17c4 -4 11.333 -7.33301 22 -10
c10 -1.33301 18.333 -0.333008 25 3c6 4 11 10 15 18c4 4.66699 6.66699 10.667 8 18c2 13.333 3.33301 22.666 4 27.999c-16.667 -16 -37.667 -21.333 -63 -16c-16 2 -29 7 -39 15c-13.333 7.33301 -22.333 17.333 -27 30c-7.33301 11.333 -9.33301 26 -6 44
c2 14.667 6.66699 27.334 14 38.001c7.33301 10 16.666 17.333 27.999 22c10.667 6 22.334 9.66699 35.001 11c10 1.33301 22.667 1 38 -1c16.667 -2 32.667 -7 48 -15c11.333 -7.33301 21.666 -17.333 30.999 -30c8 -16 12.667 -30.333 14 -43
c1.33301 -14.667 1 -33.334 -1 -56.001c-3.33301 -18.667 -8.66602 -36.334 -15.999 -53.001c-8 -16 -17.333 -28.667 -28 -38c-12.667 -10 -25.667 -16.667 -39 -20c-18 -3.33301 -34.333 -3.66602 -49 -0.999023c-28 4 -49.667 12.667 -65 26
c-17.333 12.667 -24.333 31.334 -21 56.001zM1125 496.005c0 14 -3.00098 23.665 -9.00098 28.998c-7.33301 6 -16.666 9.66699 -27.999 11c-13.333 0 -23 -3 -29 -9c-7.33301 -7.33301 -11.333 -17 -12 -29c0 -10.667 3 -19 9 -25c6 -8 16 -12 30 -12
c7.33301 -1.33301 14 0 20 4c6 2.66699 10.667 7.33398 14 14.001c3.33301 4.66699 5 10.334 5 17.001zM984.996 394.003l65 -0.998047c-1.33301 -8 1.66699 -13.333 9 -16c4.66699 -3.33301 13 -5 25 -5c8.66699 -2 16.334 -0.333008 23.001 5c3.33301 2 8 8 14 18
c2.66699 9.33301 4 16 4 20c1.33301 4 2 13.667 2 29c-13.333 -18 -34 -26.333 -62 -25c-15.333 0 -28.666 3.66699 -39.999 11c-14 5.33301 -24 14 -30 26c-8 12 -12 26 -12 42c0 14.667 3.33301 27.667 10 39c5.33301 12 13.333 21 24 27
c7.33301 6.66699 18.666 11.667 33.999 15c10.667 2.66699 23.667 4 39 4c18.667 -1.33301 34.667 -4.33301 48 -9c10 -4 21.667 -13 35 -27c10 -16 16.333 -29.667 19 -41c4.66699 -18.667 7 -37 7 -55c-2.66699 -22.667 -6 -41 -10 -55
c-6.66699 -16.667 -14.667 -30.334 -24 -41.001s-21 -18.334 -35 -23.001c-17.333 -6.66699 -34 -9.33398 -50 -8.00098c-28.667 0.666992 -50.667 6.33398 -66 17.001c-20.667 12 -30.334 29.667 -29.001 53zM767.996 533.005c24 10 46.667 24 68 42l57 2l9 -247l-68 -3
l-6 184c-14 -10.667 -33.333 -21.667 -58 -33zM347.996 380.005c4.66699 -22 13.0039 -41.334 25.0039 -58.001c12.667 -17.333 29 -28.333 49 -33c18.667 -6.66699 40.667 -8 66 -4c0 0.666992 0.333008 1 1 1v0v0c12 2.66699 28 9 48 19c15.333 14 25.666 25 30.999 33
c7.33301 13.333 12.666 27.333 15.999 42c1.33301 13.333 0.666016 28.333 -2.00098 45c-6 24 -15.333 42.667 -28 56c-10.667 12 -27 23 -49 33c-17.333 6.66699 -38.333 7.33398 -63 2.00098c-22.667 -4.66699 -42.667 -14 -60 -28c-16 -15.333 -26.667 -31 -32 -47
c-4.66699 -20 -5.33398 -40.333 -2.00098 -61zM305 374.004c-4.66699 22.667 -4.33691 44.998 0.996094 66.998c2.66699 10 11.334 28.333 26.001 55c10 12.667 25 26 45 40c13.333 9.33301 31.333 16.666 54 21.999c20.667 4.66699 41.334 4.66699 62.001 0
c21.333 -3.33301 40.333 -10.666 57 -21.999c8 -5.33301 23 -19.333 45 -42c12 -19.333 20.667 -39.666 26 -60.999c4.66699 -26.667 3.33398 -52 -3.99902 -76c-9.33301 -29.333 -23 -53 -41 -71c-16 -18 -41 -31.667 -75 -41c-30 -7.33301 -58 -6.33301 -84 3
c-29.333 10 -53.333 24.667 -72 44c-21.333 22.667 -34.666 47.334 -39.999 74.001v8zM501.997 445.002c-8 17.333 -23.335 23.998 -46.002 19.998c-14.667 -2.66699 -24.667 -10.667 -30 -24s-6.66602 -29 -3.99902 -47c2.66699 -12 7.33398 -21.667 14.001 -29
c6 -9.33301 13.333 -15.333 22 -18c6.66699 -5.33301 15.334 -6.66602 26.001 -3.99902c8 1.33301 15.667 6.33301 23 15c6.66699 6.66699 10 14.334 10 23.001l34 7c1.33301 -10 -0.666992 -21 -6 -33c-4 -9.33301 -11.333 -18.666 -22 -27.999
c-10 -6.66699 -20.667 -11 -32 -13c-11.333 -4 -25.333 -3.33301 -42 2c-14.667 2.66699 -27.334 10.667 -38.001 24c-12 9.33301 -20 24.333 -24 45c-4 15.333 -3.33301 33.666 2 54.999c5.33301 16.667 13 28.667 23 36c14 9.33301 27 15.333 39 18
c18 2.66699 35 1.66699 51 -3c15.333 -8 27 -21.333 35 -40zM1623 1679l68 23l90 -171l1 2l-30 190l41 14l40 -256l-65 -21l-92 175l-1 -2l31 -195l-42 -15zM1551 1663l49 13l31 -259l-49 -13zM1361 1628l50.002 9.99707l14 -158c0.666992 -18 4.66699 -32 12 -42
c7.33301 -11.333 16.333 -15.333 27 -12c22.667 4.66699 32.667 27 30 67l-13 157l49 8l14 -161c2.66699 -32 -2 -58.667 -14 -80c-10.667 -19.333 -31.334 -32.666 -62.001 -39.999c-8 -1.33301 -20 -2 -36 -2c-12.667 4.66699 -22 10.334 -28 17.001
c-8.66699 6.66699 -15.334 16.334 -20.001 29.001c-5.33301 16.667 -8.33301 30.667 -9 42zM1214 1477c2 -28 6.33301 -47.667 13 -59c6.66699 -15.333 18 -22.333 34 -21c24.667 3.33301 36 33 34 89c-3.33301 56.667 -18 83.667 -44 81h-1
c-26 -3.33301 -38 -33.333 -36 -90zM1264 1348c-24.667 -2.66699 -43.333 0.665039 -56 9.99805c-14.667 11.333 -25.334 26.333 -32.001 45c-8 22 -12.333 43.667 -13 65c-1.33301 18 -0.666016 36.333 2.00098 55c2 16 6.33301 31.333 13 46c6 12 15.333 23.333 28 34
c12.667 8.66699 27 13.667 43 15s31.333 -1.33398 46 -8.00098c14 -7.33301 25.667 -20.666 35 -39.999c9.33301 -22 14.666 -48 15.999 -78c0 -4 -0.333008 -11.667 -1 -23c-1.33301 -9.33301 -3.33301 -17.666 -6 -24.999l-9 -24c-5.33301 -8.66699 -10.333 -16 -15 -22v0
c2 0.666992 3.83301 1.33398 5.5 2.00098s3.5 1.66699 5.5 3c-1.33301 -0.666992 2 0.333008 10 3c2.66699 0.666992 6.33398 1 11.001 1c4 1.33301 7 2 9 2l3 -47l-62 -6c-4 0 -8 -1 -12 -3c-6.66699 -1.33301 -13.667 -3 -21 -5zM1015 1470
c0.666992 -18.667 2.33398 -32.001 5.00098 -40.001c1.33301 -12.667 5.66602 -23.334 12.999 -32.001c6.66699 -7.33301 15 -11.333 25 -12c0 0.666992 0.666992 1 2 1c24.667 3.33301 36.667 32.333 36 87c0 14.667 -1.66699 29.334 -5 44.001
c-2 10 -6.66699 20.333 -14 31c-5.33301 6.66699 -13 9.66699 -23 9c-26 -1.33301 -39 -30.666 -39 -87.999zM963.998 1465c0 24 0.999023 41.3311 2.99902 51.998c2.66699 16.667 7.33398 32 14.001 46c7.33301 12.667 16.666 23.334 27.999 32.001
c13.333 9.33301 28.333 14 45 14c12.667 0.666992 24 -1 34 -5c9.33301 -3.33301 19 -10.666 29 -21.999c9.33301 -12 16.333 -26 21 -42c6 -16 9 -37 9 -63c0.666992 -17.333 -0.333008 -34 -3 -50c-3.33301 -18 -8.66602 -32.667 -15.999 -44
c-6 -12.667 -15 -23.667 -27 -33c-12.667 -6 -25.667 -9.66699 -39 -11c-23.333 -1.33301 -42 3 -56 13c-14.667 12 -25 27.667 -31 47c-7.33301 24 -11 46 -11 66zM847.997 1557.99l-1 -63l22 -2c18.667 0 28 11 28 33c0 10 -2.33301 17.333 -7 22c-4 6 -11 9 -21 9z
M799.997 1611.99l77.001 -5.00293c22 -1.33301 39 -6.33301 51 -15c14.667 -12 22 -30.667 22 -56c-1.33301 -21.333 -6.33301 -36.666 -15 -45.999c-8 -10 -18.667 -16.333 -32 -19v-1c10 -1.33301 18.333 -5.33301 25 -12
c5.33301 -7.33301 8.66602 -14.666 9.99902 -21.999c2 -16 3 -30.333 3 -43c2 -26 4.66699 -43.667 8 -53l-54 3c-2 9.33301 -3.33301 22.333 -4 39c-1.33301 14.667 -2 26.334 -2 35.001c-1.33301 10 -4 17.333 -8 22c-6.66699 2 -14.667 3.66699 -24 5h-11l-2 -98l-50 3z
M675.998 1568.99l-3 -64.001l23 -2c18 -1.33301 27.667 9.33398 29 32.001c0 8.66699 -2.33301 16 -7 22c-4.66699 6.66699 -11.667 10 -21 10zM627.998 1624.99l77.999 -8.00098c20 -2 37 -8.33301 51 -19c14 -11.333 20.667 -30.333 20 -57
c-1.33301 -20 -6.66602 -34.667 -15.999 -44c-9.33301 -10.667 -20.333 -16.667 -33 -18v-1c10 -1.33301 18.333 -5.66602 25 -12.999c5.33301 -6.66699 8.66602 -14 9.99902 -22c0 -4.66699 0.333008 -10.834 1 -18.501s1.33398 -16.5 2.00098 -26.5
c0.666992 -26 2.66699 -43.333 6 -52l-54 5c-1.33301 6 -2.33301 19.333 -3 40c-0.666992 14.667 -1 26.334 -1 35.001c-1.33301 10 -4 17.333 -8 22c-5.33301 2.66699 -13.333 4.66699 -24 6l-11 1l-5 -98l-50 5zM530.997 1482.99l-12 113h-1l-33 -104zM496.997 1652.99
l58 -12l45 -275l-54 11l-7 52l-71 15l-16 -47l-50 10zM214.997 1734.99l76 -26l1 -184h1l54 164l75 -25l-39 -256l-42 14l34 214l-1 1l-74 -201l-45 16l-5 228v-1l-33 -214l-42 14zM171.997 1122.99l35 -160l31 160h190l-62 -82v-187l62 -81h-205l59 81v227l-64 -308h-46
l-62 296v-215l58 -81h-168l62 81v187l-62 82h172zM760.997 1122.99v-150l-62 92h-120v-75h66l47 40v-157l-47 48h-66v-78h120l68 101v-171h-337l63 81v187l-63 82h331zM679.997 1267.99l-59 -113h-35l17 113h77zM1138 1122.99l-56 -62l-70 -101l88 -126l53 -61h-194l37 53
l-43 61l-43 -61l42 -53h-167l53 57l77 108l-83 120l-50 65h189l-34 -58l34 -48l41 54l-38 52h164zM1157 1122.99h208l-62 -82v-187l62 -81h-208l62 81v187zM1678 1127.99v-162.999c-26.667 69.333 -66 104 -118 104c-52.667 0 -79 -41 -79 -123
c0 -40.667 7 -70.334 21 -89.001c15.333 -18 38.666 -27 69.999 -27c30.667 0 55.667 10 75 30c20 20 29.667 45 29 75l-0.5 1.5c-0.333008 1 -0.5 2.16699 -0.5 3.5c8.66699 -10 13 -24.333 13 -43c0 -42 -12.667 -76 -38 -102c-24.667 -24.667 -57.334 -37 -98.001 -37
c-49.333 0 -89.666 17.333 -120.999 52c-34 36 -51 79.333 -51 130c0 49.333 17 94 51 134c32.667 40 71.334 60 116.001 60c38 0 71.333 -14.667 100 -44zM1867 1133.99c42.667 0 79.999 -19.333 111.999 -58c31.333 -40.667 47 -86.667 47 -138
c0 -49.333 -16 -92 -48 -128c-29.333 -34.667 -67 -52 -113 -52c-43.333 0 -80.666 17.333 -111.999 52c-32.667 35.333 -49 77.333 -49 126c0 55.333 16 102 48 140c32.667 38.667 71 58 115 58zM1866 1072.99c-18 0 -32.332 -11.667 -42.999 -35
c-10.667 -24.667 -16 -54.667 -16 -90c0 -38 5.33301 -67.667 16 -89c10.667 -22 25 -33 43 -33c17.333 0 31.666 11 42.999 33c10.667 21.333 16 51 16 89c0 37.333 -5.66699 67.333 -17 90c-10.667 23.333 -24.667 35 -42 35z" />
    <glyph glyph-name="A" unicode="A" 
d="M1639 0c0 112 39.832 208.168 119.499 288.501s175.834 120.833 288.501 121.5v-171c-66 -0.666992 -122.167 -24.334 -168.5 -71.001s-69.5 -102.667 -69.5 -168h-170zM2047 137.001l0.000976562 -102c-22 -1.33301 -33 -13 -33 -35h-102
c0 36.667 13.167 68.667 39.5 96s58.166 41 95.499 41z" />
    <glyph glyph-name="B" unicode="B" 
d="M1059 505c0 -44 10.165 -81.5 30.498 -112.5s42.166 -55.167 65.499 -72.5c36.667 -26.667 90.334 -40 161.001 -40c17.333 0 51.333 3.66699 102 11c41.333 6.66699 74.666 11.5 99.999 14.5s42.333 5.5 51 7.5c25.333 3.33301 52 2.66602 80 -2.00098
c10.667 -2.66699 22.5 -5.16699 35.5 -7.5s23.833 -7.5 32.5 -15.5l48 78c-27.333 14 -56.333 23.667 -87 29c-50.667 8.66699 -95 10.667 -133 6c-11.333 -1.33301 -26.166 -4.66602 -44.499 -9.99902s-43.166 -10.333 -74.499 -15c-67.333 -10.667 -103 -16 -107 -16
c-26 0 -48.667 3.33301 -68 10s-36.666 14 -51.999 22c-35.333 16 -71.333 53.667 -108 113h-32zM1024 392c-9.33301 -38 -20.668 -64.3311 -34.001 -78.998s-31 -30 -53 -46c-24 -16.667 -52.333 -30.834 -85 -42.501s-69 -14.5 -109 -8.5l-281 39
c-11.333 1.33301 -21.5 1.33301 -30.5 0s-17.5 -2 -25.5 -2c-14 0 -31.833 -3.16699 -53.5 -9.5s-38.5 -15.5 -50.5 -27.5l-97 159c12 13.333 22.667 22.666 32 27.999s20.333 11 33 17c38.667 18 80 29 124 33c18.667 1.33301 37 1.66602 55 0.999023s36.667 0 56 2
c36 -6 72.167 -11.5 108.5 -16.5l109.5 -15.5c40 0 67 4 81 12c7.33301 4 19 11.333 35 22s32 26.334 48 47.001c-35.333 4 -71.333 10.833 -108 20.5s-69 19.834 -97 30.501l104 258c-52 30 -88.333 54.167 -109 72.5s-37 39.5 -49 63.5
c-17.333 30.667 -28.5 60.334 -33.5 89.001s-7.16699 54.334 -6.5 77.001c0.666992 40 10.167 84.167 28.5 132.5s52.833 91.5 103.5 129.5c42 32 83 65 123 99s79.667 73.667 119 119c-49.333 25.333 -74 65.666 -74 120.999c0 37.333 13.167 69.333 39.5 96
s58.5 40 96.5 40c37.333 0 69.333 -13.333 96 -40s40 -58.667 40 -96c0 -54.667 -24.667 -95 -74 -121c38.667 -45.333 77.834 -85 117.501 -119s81.167 -67 124.5 -99c50 -38 84 -81.167 102 -129.5s27.667 -92.5 29 -132.5c0 -22.667 -2.33301 -48.334 -7 -77.001
s-15.334 -58.334 -32.001 -89.001c-13.333 -24 -30.166 -45.167 -50.499 -63.5s-56.166 -42.5 -107.499 -72.5l104 -258c-29.333 -10.667 -62.333 -20.834 -99 -30.501s-72 -16.5 -106 -20.5c15.333 -20.667 31 -36.334 47 -47.001s28 -18 36 -22c14 -8 41 -12 81 -12
l108.5 15.5c36.333 5 72.833 10.5 109.5 16.5c18 -2 36.167 -2.66699 54.5 -2s37.166 0.333984 56.499 -0.999023c42.667 -4 84 -15 124 -33c12 -6 22.833 -11.667 32.5 -17s20.5 -14.666 32.5 -27.999l-98 -159c-12 12 -28.833 21.167 -50.5 27.5s-39.167 9.5 -52.5 9.5
c-8.66699 0 -17.5 0.666992 -26.5 2s-19.167 1.33301 -30.5 0l-280 -39c-40 -6 -77.167 -3.33301 -111.5 8s-62.5 26.333 -84.5 45c-22 18 -39.5 33.5 -52.5 46.5s-23.833 38.5 -32.5 76.5zM987.996 505.002h-31.998c-37.333 -60 -73 -97.667 -107 -113
c-16 -8 -33.667 -15.333 -53 -22s-41.666 -10 -66.999 -10c-4.66699 0 -40.334 5.33301 -107.001 16c-32 4.66699 -57.333 9.66699 -76 15s-33.334 8.66602 -44.001 9.99902c-38 4.66699 -82.333 2.66699 -133 -6c-30.667 -5.33301 -59.334 -15 -86.001 -29l48 -78
c8 8 18.5 13.167 31.5 15.5s24.833 4.83301 35.5 7.5c28 4.66699 54.667 5.33398 80 2.00098c8.66699 -2 25.667 -4.5 51 -7.5s59 -7.83301 101 -14.5c50 -7.33301 84 -11 102 -11c70 0 123.667 13.333 161 40c22.667 17.333 44.167 41.5 64.5 72.5s30.5 68.5 30.5 112.5z
M1024 882.002c64.667 0 126.668 -5 186.001 -15c65.333 23.333 112.666 59.666 141.999 108.999c25.333 42.667 38 89.667 38 141c0 30.667 -7.66699 64.5 -23 101.5s-40.333 70.5 -75 100.5l-129 107.5c-46.667 39 -93 84.5 -139 136.5
c-46.667 -52 -93.334 -97.5 -140.001 -136.5l-128 -107.5c-35.333 -30 -60.5 -63.5 -75.5 -100.5s-22.5 -70.833 -22.5 -101.5c0 -51.333 12.333 -98.333 37 -141c28.667 -49.333 76.334 -85.666 143.001 -108.999c58.667 10 120.667 15 186 15zM1024 700.002
c78 0 153.001 -7.66699 225.001 -23l-48 123c-58.667 9.33301 -117.667 14 -177 14c-60.667 0 -120 -4.66699 -178 -14l-48 -123c71.333 15.333 146.666 23 225.999 23zM1024 1649c45.333 0 68 22.667 68 68s-22.667 68 -68 68s-68 -22.667 -68 -68s22.667 -68 68 -68z
M1024 560.002c45.333 0 89.501 3.83301 132.501 11.5s84.5 16.834 124.5 27.501c-78 20.667 -163.667 31 -257 31c-94.667 0 -180.334 -10.333 -257.001 -31c38.667 -10.667 79.667 -19.834 123 -27.501s88 -11.5 134 -11.5zM988.001 1138l-83 1
c-22.667 0 -34 11.333 -34 34v0c0 22.667 11.333 34 34 34h83v86c0 23.333 12 35 36 35v0c23.333 0 35 -11.667 35 -35v-86h86c22 0 33 -11.333 33 -34v0c0 -22.667 -11 -34 -33 -34h-86v-82c0 -24 -11.667 -36 -35 -36v0c-24 0 -36 12 -36 36v81zM1503 149.002h49
l-150 -149h-49zM1227 149.002l47 1l-150 -150h-47zM944.001 149.002h45l-150 -149h-45zM668.001 149.002h47l-152 -149h-45zM392.001 149.002h44l-150 -149h-45zM1238 1778l-14 32l238 237h45zM502.001 1086c0 -8.66699 1.33301 -23 4 -43l-506 -506v48zM0.000976562 1413
l632 634h45l-677 -677v43zM0.000976562 1691l356 356h45l-401 -400v44zM0.000976562 1136l909 911h45l-954 -953v42zM1102 1919c-10.667 4 -22 7.33301 -34 10l117 118h45zM804.001 1664l-804 -806v-44l814 815c-2.66699 7.33301 -6 19 -10 35zM1263 1527
c-5.33301 4 -13.333 10.667 -24 20l499 500h45zM570.001 878.002c9.33301 -10.667 16.667 -18.667 22 -24l-592 -593v48zM1949 0.00195312h-43l142 140v-45zM0.00195312 1923v44l79 80h45zM1630 0.00195312l418 416v-46l-371 -370h-47zM1878 474.002
c-6 4.66699 -15.667 11 -29 19l199 198v-45zM1668 544.002c-10 0.666992 -25.333 1 -46 1l426 425v-47zM1446 605.002l-13 32l615 614v-45zM1518 953.002c7.33301 18 13.667 39.667 19 65l511 510v-45zM1525 1236l-12 32l535 536v-45zM1415 1405
c-5.33301 5.33301 -13 11.333 -23 18l623 624c22 0 33 -2.33301 33 -7zM621.003 652.002l-30 -73l-39 -39c-6.66699 0 -19 1.66699 -37 5zM196.003 228.002l17 -28l-200 -200c-8.66699 0 -13 10.667 -13 32z" />
    <glyph glyph-name="D" unicode="D" 
d="M1639 2049l170.001 -0.000976562c0 -66 23.167 -122.5 69.5 -169.5s102.5 -70.5 168.5 -70.5v-171c-112.667 0 -208.834 40.333 -288.501 121s-119.5 177.334 -119.5 290.001zM2047 1911c-37.333 -0.666992 -69.167 12.667 -95.5 40s-39.5 60 -39.5 98h102
c0 -23.333 11 -35.333 33 -36v-102z" />
    <glyph glyph-name="F" unicode="F" 
d="M409 2049c0 -112.667 -40.167 -209.333 -120.5 -290s-176.5 -121 -288.5 -121v171c65.333 0 121.333 23.5 168 70.5s70 103.5 70 169.5h171zM0 1911l-0.000976562 101.999c22.667 0.666992 34 12.667 34 36h101c0 -38 -13.167 -70.667 -39.5 -98
s-58.166 -40.666 -95.499 -39.999z" />
    <glyph glyph-name="K" unicode="K" 
d="M427 184c10 -5.33301 21 -9.33301 33 -12l-174 -172h-45zM649 131c6.66699 -0.666992 20 -2.33301 40 -5l-126 -126h-45zM948 109.001l-109 -109h-45l109 110c20 0 35 -0.333008 45 -1zM1189 111.001c18 2 35 3 51 3l-116 -114h-47zM1503 149.001
c24 5.33301 44.667 10.333 62 15l-163 -164h-49zM1103 1919c-9.33301 8 -19 13.333 -29 16l111 112h45zM1233 1771c-4.66699 11.333 -11.667 20.333 -21 27l250 249h45zM834 1649c-9.33301 9.33301 -16.667 18 -22 26l-186 -188c22.667 -6.66699 35 -10 37 -10z
M198.999 787.001l24 -27l-223 -223v48zM-0.000976562 1413l632 634h45l-677 -677v43zM-0.000976562 1691l356 356h45l-401 -400v44zM398.999 1492c-22 -6 -45.333 -14.667 -70 -26l580 581h45zM141.999 1285c-14 -26 -25 -53.667 -33 -83l-109 -108v42zM109.999 967.001
c2 -6 3.5 -11.833 4.5 -17.5s2.5 -11.167 4.5 -16.5l-119 -119v44zM1254 1515c-5.33301 7.33301 -12.333 16.333 -21 27l505 505h45zM348.999 659.001l8 -42l-357 -356v48zM1949 0.000976562h-43l142 140v-45zM-0.000976562 1923v44l79 80h45zM1630 0.000976562l418 416v-46
l-371 -370h-47zM1717 314.001l-9 38l340 339v-45zM1681 557.001l10 56l357 357v-47zM1953 1111c0 6.66699 -0.5 13.668 -1.5 21.001s-1.5 14.666 -1.5 21.999l98 97v-45zM1884 1320c-4.66699 4.66699 -11 13 -19 25l183 183v-45zM1742 1454l-29 17l335 333v-45zM1514 1505
c-17.333 -2 -33.333 -4 -48 -6l549 548c22 0 33 -2.33301 33 -7zM349.999 381.002l-17 -61l-320 -320c-8.66699 0 -13 10.667 -13 32zM1059 1559h-71v131h-83c-22.667 0 -34 11 -34 33v1c0 22 11.333 33 34 33h83v85c0 23.333 12 35 36 35v0c23.333 0 35 -11.667 35 -35v-85
h86c22 0 33 -11 33 -33v-1c0 -22 -11 -33 -33 -33l-85 -1zM1058 853.002c114.667 -1.33301 219.667 -8.16602 315 -20.499s170 -27.833 224 -46.5l83 66.5c30 24.333 55 49.166 75 74.499c32 40.667 48 94.334 48 161.001c0 60 -14.333 110 -43 150
c-51.333 74.667 -129.333 112 -234 112c-62.667 0 -127 -13 -193 -39c-58 -23.333 -102 -49.333 -132 -78c-56 -56 -97.333 -128 -124 -216c-9.33301 -31.333 -14.833 -59.833 -16.5 -85.5s-2.5 -51.834 -2.5 -78.501zM1024 1039
c4.66699 18.667 8.66406 31.668 11.9971 39.001c6.66699 26 14.334 48 23.001 66c4 11.333 9.83301 24.5 17.5 39.5s15.834 32.167 24.501 51.5c5.33301 11.333 11 25.166 17 41.499l18 48.5c5.33301 13.333 8 27.666 8 42.999c0 32.667 -11.667 60.5 -35 83.5
s-51.666 34.5 -84.999 34.5c-79.333 0 -119 -39.667 -119 -119c0 -15.333 2.66699 -29.666 8 -42.999c14.667 -43.333 26 -73.333 34 -90l24 -51.5l19 -39.5c8.66699 -22 16 -44 22 -66c1.33301 -4 5.33301 -16.667 12 -38zM988.996 853.003
c-0.666992 26 -1.66797 51.834 -3.00098 77.501s-6.33301 54.167 -15 85.5c-27.333 89.333 -68.666 161.333 -123.999 216c-28.667 28 -72.667 54 -132 78c-68 26.667 -132.333 40 -193 40c-105.333 0 -183.333 -37.667 -234 -113c-28.667 -40 -43 -90 -43 -150
c0 -65.333 16 -119 48 -161c19.333 -24.667 44 -49.334 74 -74.001l84 -67c116.667 42 296 64.667 538 68zM1570 311.004c-128.667 52 -309.334 78 -542.001 78c-241.333 0 -424 -26.667 -548 -80c117.333 -46.667 299 -70 545 -70c117.333 0 224.333 6.5 321 19.5
s171.334 30.5 224.001 52.5zM1544 405.004l-30 115c-132 29.333 -295.333 44 -490 44c-194 0 -357 -14.667 -489 -44l-32 -116c127.333 37.333 301.333 56 522 56c219.333 0 392.333 -18.333 519 -55zM462.995 522.004l-32.998 187.001c-0.666992 0 -1.66699 1.33301 -3 4
c-3.33301 4.66699 -12.833 10.834 -28.5 18.501s-33.834 20.834 -54.501 39.501c-29.333 24.667 -52.166 44.667 -68.499 60s-31.166 32 -44.499 50c-40.667 56 -63.334 123.667 -68.001 203c-6.66699 76.667 24.333 153 93 229c69.333 76 163 111.667 281 107
c44 -2.66699 95.667 -13.334 155 -32.001l59.5 -23.5l60.5 -23.5c10.667 -5.33301 20 -10.666 28 -15.999c-3.33301 14 -5 28 -5 42c0 52 18.5 96.333 55.5 133s81.5 55.334 133.5 56.001c52 0 96.333 -18.5 133 -55.5s55 -81.167 55 -132.5
c0 -10.667 -1.33301 -24.667 -4 -42c9.33301 6 18.333 11 27 15c30.667 13.333 71 29 121 47c57.333 19.333 109 30.333 155 33c118 5.33301 211.333 -30.334 280 -107.001c67.333 -76 98.666 -152.333 93.999 -229c-5.33301 -79.333 -28.333 -147 -69 -203
c-13.333 -18 -28.333 -34.833 -45 -50.5s-39 -35.5 -67 -59.5c-22 -18.667 -40.667 -31.834 -56 -39.501s-24.333 -13.834 -27 -18.501c-0.666992 -1.33301 -1.33398 -2.33301 -2.00098 -3s-1 -1.33398 -1 -2.00098l-32 -188l66 -247c-33.333 -30 -108 -54.667 -224 -74
s-250 -29 -402 -29c-154.667 0 -290.667 10.167 -408 30.5s-191 45.833 -221 76.5zM523.997 583.005c126.667 32 294.667 48 504 48c205.333 0 371 -15.333 497 -46l25 147c-134 35.333 -309.333 53 -526 53c-218 0 -393 -18 -525 -54z" />
    <glyph glyph-name="L" unicode="L" 
d="M427 184c10 -5.33301 21 -9.33301 33 -12l-174 -172h-45zM649 131c6.66699 -0.666992 20 -2.33301 40 -5l-126 -126h-45zM948 109.001l-109 -109h-45l109 110c20 0 35 -0.333008 45 -1zM1189 111.001c18 2 35 3 51 3l-116 -114h-47zM1503 149.001
c24 5.33301 44.667 10.333 62 15l-163 -164h-49zM1103 1919c-9.33301 8 -19 13.333 -29 16l111 112h45zM1233 1771c-4.66699 11.333 -11.667 20.333 -21 27l250 249h45zM834 1649c-9.33301 9.33301 -16.667 18 -22 26l-186 -188c22.667 -6.66699 35 -10 37 -10z
M198.999 787.001l24 -27l-223 -223v48zM-0.000976562 1413l632 634h45l-677 -677v43zM-0.000976562 1691l356 356h45l-401 -400v44zM398.999 1492c-22 -6 -45.333 -14.667 -70 -26l580 581h45zM141.999 1285c-14 -26 -25 -53.667 -33 -83l-109 -108v42zM109.999 967.001
c2 -6 3.5 -11.833 4.5 -17.5s2.5 -11.167 4.5 -16.5l-119 -119v44zM1254 1515c-5.33301 7.33301 -12.333 16.333 -21 27l505 505h45zM348.999 659.001l8 -42l-357 -356v48zM1949 0.000976562h-43l142 140v-45zM-0.000976562 1923v44l79 80h45zM1630 0.000976562l418 416v-46
l-371 -370h-47zM1717 314.001l-9 38l340 339v-45zM1681 557.001l10 56l357 357v-47zM1953 1111c0 6.66699 -0.5 13.668 -1.5 21.001s-1.5 14.666 -1.5 21.999l98 97v-45zM1884 1320c-4.66699 4.66699 -11 13 -19 25l183 183v-45zM1742 1454l-29 17l335 333v-45zM1514 1505
c-17.333 -2 -33.333 -4 -48 -6l549 548c22 0 33 -2.33301 33 -7zM349.999 381.002l-17 -61l-320 -320c-8.66699 0 -13 10.667 -13 32zM1024 1210c-1.33301 6.66699 -3 12.332 -5 16.999c-4 13.333 -7.33301 23 -10 29c-2 4.66699 -4.66699 10.5 -8 17.5
s-6.66602 14.5 -9.99902 22.5c-2 4.66699 -4.5 10.834 -7.5 18.501s-5.5 14.834 -7.5 21.501c-2 6 -3 12.333 -3 19c0 35.333 17 53 51 53c35.333 0 53 -17.333 53 -52c0 -8.66699 -1.33301 -15 -4 -19c-9.33301 -25.333 -14.333 -39 -15 -41c-10 -20 -16.333 -33 -19 -39
c-4.66699 -10.667 -7.66699 -20.334 -9 -29.001c-2 -4 -3.33301 -7.5 -4 -10.5s-1.33398 -5.5 -2.00098 -7.5zM911.999 865c-83.333 -1.33301 -159.499 -5.66797 -228.499 -13.001s-122.5 -17.666 -160.5 -30.999c-20 24.667 -43.167 49.5 -69.5 74.5s-49.5 48.5 -69.5 70.5
c-33.333 34 -50 71.333 -50 112c0 50 8.33301 86.667 25 110c18 26.667 45.667 46.5 83 59.5s75 19.5 113 19.5c48 0 94 -10.667 138 -32c43.333 -22.667 72 -40.667 86 -54c45.333 -46 80.666 -96 105.999 -150c8.66699 -20 15.167 -47.833 19.5 -83.5
s6.83301 -63.167 7.5 -82.5zM1059 1559h-71v131h-83c-22.667 0 -34 11 -34 33v1c0 22 11.333 33 34 33h83v85c0 23.333 12 35 36 35v0c23.333 0 35 -11.667 35 -35v-85h86c22 0 33 -11 33 -33v-1c0 -22 -11 -33 -33 -33l-85 -1zM1024 1039
c4.66699 18.667 8.66406 31.668 11.9971 39.001c6.66699 26 14.334 48 23.001 66c4 11.333 9.83301 24.5 17.5 39.5s15.834 32.167 24.501 51.5c5.33301 11.333 11 25.166 17 41.499l18 48.5c5.33301 13.333 8 27.666 8 42.999c0 32.667 -11.667 60.5 -35 83.5
s-51.666 34.5 -84.999 34.5c-79.333 0 -119 -39.667 -119 -119c0 -15.333 2.66699 -29.666 8 -42.999c14.667 -43.333 26 -73.333 34 -90l24 -51.5l19 -39.5c8.66699 -22 16 -44 22 -66c1.33301 -4 5.33301 -16.667 12 -38zM987.997 787.999
c0 26.667 -0.667969 63.501 -2.00098 110.501s-6.33301 86.167 -15 117.5c-27.333 89.333 -68.666 161.333 -123.999 216c-28.667 28 -72.667 54 -132 78c-68 26.667 -132.333 40 -193 40c-105.333 0 -183.333 -37.667 -234 -113c-28.667 -40 -43 -90 -43 -150
c0 -65.333 16 -119 48 -161c16.667 -24 48.667 -53.667 96 -89s87.333 -68 120 -98c58 12.667 123.5 23.667 196.5 33s167.167 14.666 282.5 15.999zM462.996 522l-32.998 187.001c-0.666992 0 -1.66699 1.33301 -3 4c-3.33301 4.66699 -12.833 10.834 -28.5 18.501
s-33.834 20.834 -54.501 39.501c-29.333 24.667 -52.166 44.667 -68.499 60s-31.166 32 -44.499 50c-40.667 56 -63.334 123.667 -68.001 203c-6.66699 76.667 24.333 153 93 229c69.333 76 163 111.667 281 107c44 -2.66699 95.667 -13.334 155 -32.001l59.5 -23.5
l60.5 -23.5c10.667 -5.33301 20 -10.666 28 -15.999c-3.33301 14 -5 28 -5 42c0 52 18.5 96.333 55.5 133s81.5 55.334 133.5 56.001c52 0 96.333 -18.5 133 -55.5s55 -81.167 55 -132.5c0 -10.667 -1.33301 -24.667 -4 -42c9.33301 6 18.333 11 27 15
c30.667 13.333 71 29 121 47c57.333 19.333 109 30.333 155 33c118 5.33301 211.333 -30.334 280 -107.001c67.333 -76 98.666 -152.333 93.999 -229c-5.33301 -79.333 -28.333 -147 -69 -203c-13.333 -18 -28.333 -34.833 -45 -50.5s-39 -35.5 -67 -59.5
c-22 -18.667 -40.667 -31.834 -56 -39.501s-24.333 -13.834 -27 -18.501c-0.666992 -1.33301 -1.33398 -2.33301 -2.00098 -3s-1 -1.33398 -1 -2.00098l-32 -188l66 -247c-33.333 -30 -108 -54.667 -224 -74s-250 -29 -402 -29c-154.667 0 -290.667 10.167 -408 30.5
s-191 45.833 -221 76.5zM1544 315.001l-30.001 118.001c-130 30 -293.333 45 -490 45c-194.667 0 -357.334 -15 -488.001 -45l-32 -119c126.667 38.667 300.334 58 521.001 58c106 0 204.333 -5.33301 295 -16s165.334 -24.334 224.001 -41.001zM1518 614.002
c-122.667 34 -286.001 51 -490.001 51c-205.333 0 -370.666 -17.333 -495.999 -52l15 -101c126 32.667 286.333 49 481 49c194 0 352 -16 474 -48zM1060 787.002c114.667 -2 208.665 -7.66699 281.998 -17s139.333 -20.333 198 -33c36.667 36 77.334 70.333 122.001 103
s76 60.667 94 84c32 43.333 48 97.333 48 162c0 59.333 -14.333 109 -43 149c-51.333 75.333 -129.666 113 -234.999 113c-61.333 0 -125.333 -13.333 -192 -40c-60.667 -24 -104.667 -50 -132 -78c-56.667 -54.667 -98 -126.667 -124 -216
c-10 -30.667 -15.5 -69.667 -16.5 -117s-1.5 -84 -1.5 -110zM1132.99 865.002c0 19.333 2.16992 46.8359 6.50293 82.5029s11.166 63.5 20.499 83.5c24.667 54 60 104 106 150c13.333 13.333 42 31.333 86 54c43.333 21.333 89.666 32 138.999 32
c37.333 0 74.5 -6.5 111.5 -19.5s64.833 -32.833 83.5 -59.5c16.667 -22.667 25 -59.334 25 -110.001c0 -40 -16.333 -77.333 -49 -112c-21.333 -22 -44.333 -44.167 -69 -66.5s-48.334 -48.5 -71.001 -78.5c-38.667 13.333 -92.5 23.666 -161.5 30.999
s-144.833 11.666 -227.5 12.999z" />
    <glyph glyph-name="M" unicode="M" 
d="M490 683c2.66699 6 7 15.002 13 27.002c11.333 28 17 44.667 17 50c-1.33301 18.667 -11 28 -29 28c-13.333 0 -29 -19 -47 -57c-2.66699 -5.33301 -6.66699 -10 -12 -14c-18 -18.667 -15.333 -34.334 8 -47.001v0c21.333 -12.667 38 -8.33398 50 12.999zM1080 1054
c46.667 61.333 69.6689 129.667 69.002 205c-2.66699 22 -15.334 33 -38.001 33c-30.667 0 -42.667 -11.333 -36 -34c2 -36.667 -1.66699 -67 -11 -91c-15.333 -38 -32.333 -66.333 -51 -85c-10 -20 -4 -34.667 18 -44v0c21.333 -10 37.666 -4.66699 48.999 16z
M819.002 1542c-3.33301 24 -2.66699 50.001 2 78.001c-40 -8 -77.667 -26.667 -113 -56c-21.333 -11.333 -26.333 -27 -15 -47c11.333 -20.667 27 -24 47 -10l38.5 20.5c11.667 6.33301 25.167 11.166 40.5 14.499zM1756 274.004
c-0.666992 0 -0.000976562 18.167 1.99902 54.5s3 75.5 3 117.5c0.666992 83.333 0.666992 169.5 0 258.5s-12.667 177.833 -36 266.5c-22.667 85.333 -47.667 158.166 -75 218.499s-57 112.5 -89 156.5c-48 72 -113.333 133 -196 183s-169 82.667 -259 98
c2.66699 -15.333 3.5 -31 2.5 -47s-0.833008 -31.333 0.5 -46c64.667 -22 125.667 -49.333 183 -82s99.333 -68 126 -106c32 -44 61.667 -96.167 89 -156.5s52.333 -133.166 75 -218.499c22.667 -88.667 34.334 -177.5 35.001 -266.5s1 -175.167 1 -258.5
c0 -42 -1 -81.167 -3 -117.5s-2 -54.5 0 -54.5h141zM1079 1697c104.667 -6.66699 201.667 -33.6689 291 -81.002s165.333 -108 228 -182c44 -52 85.5 -114.667 124.5 -188s70.167 -151 93.5 -233c26.667 -95.333 43.5 -195.5 50.5 -300.5s10.5 -202.167 10.5 -291.5v-218
h-155.5h-403.5h-671c-6 0 -8.83301 16.333 -8.5 49s2.5 59 6.5 79c2.66699 16 9 38.667 19 68s26.667 65 50 107c10.667 21.333 36 52.5 76 93.5l138 142.5c30 30.667 53.5 69.334 70.5 116.001s24.167 89 21.5 127c-24.667 -20 -51.667 -36.333 -81 -49
c-141.333 -50.667 -243.666 -124 -306.999 -220c-4.66699 -6 -19.667 -33 -45 -81c-13.333 -25.333 -24.666 -42.666 -33.999 -51.999c-12.667 -12.667 -31 -19.667 -55 -21c-37.333 -2 -66.333 16 -87 54c-28 -8 -53 -11.333 -75 -10c-37.333 14 -64.333 29 -81 45
c-34 34 -56.167 68 -66.5 102s-15.5 70.667 -15.5 110c0 56 34.667 130 104 222c81.333 106 124.666 186.667 129.999 242c0 24 2.33301 51 7 81c4 20.667 12.333 40.667 25 60c8.66699 13.333 14.5 22.5 17.5 27.5s8.5 12.5 16.5 22.5c6 8 11 14.167 15 18.5
s9 10.166 15 17.499c7.33301 8.66699 16.666 18.667 27.999 30c-35.333 97.333 -49.666 197.666 -42.999 300.999c132.667 -47.333 244 -121.666 334 -222.999c22 75.333 65.333 136.333 130 183c53.333 -37.333 95.666 -86.666 126.999 -147.999zM404 861.002
c19.333 13.333 21.334 29.334 6.00098 48.001c-16 15.333 -33.667 16.666 -53 3.99902c-40.667 -26.667 -62.334 -61.667 -65.001 -105c0.666992 -22 13.667 -32.333 39 -31c24 2 35.667 14.333 35 37c5.33301 21.333 18 37 38 47zM656.001 1359l21.999 11.0029
c20 8 26.333 22.667 19 44c-8 20 -23.333 26.667 -46 20c-78.667 -28.667 -133 -81.334 -163 -158.001c-4.66699 -22 3.33301 -37 24 -45c20.667 -6.66699 34.667 0.666016 42 21.999c5.33301 11.333 9.33301 18.666 12 21.999c7.33301 -6 17 -10 29 -12
c40.667 -6.66699 64.334 11.333 71.001 54c2 14.667 -1.33301 28.667 -10 42zM442 473.006c14 -4 27 -5.33301 39 -4l-468 -469c-8.66699 0 -13 10.667 -13 32zM1581 1568.01l-25 22l459 457c22 0 33 -2.33301 33 -7zM567 326.006c-2.66699 -15.333 -4.33301 -32.667 -5 -52
l-276 -274h-45zM1710 1422l-18 24l356 358v-45zM1813 1249c-3.33301 8 -8.33301 17.667 -15 29l250 250v-45zM1893 1048c-4 15.333 -8 28 -12 38l167 165v-45zM1941 816.005l-6 40l113 114v-47zM1962 559.005c-1.33301 18.667 -2 33.667 -2 45l88 87v-45zM1964 285.005v47
l84 84v-46zM0.000976562 1923v44l79 80h45zM1949 0.00488281h-43l142 140v-45zM236.001 546.005c4 -2.66699 9 -5.33301 15 -8l18 -8l-269 -269v48zM1422 1682.01c-4 2.66699 -14.333 8.33301 -31 17l347 348h45zM103.001 962.005c-8.66699 -16.667 -16.333 -39.333 -23 -68
l-80 -80v44zM1049 1868.01c-10 10.667 -16.667 18.333 -20 23l156 156h45zM350.002 1487l-350 -351v-42l339 338c0 4 0.5 8.5 1.5 13.5s1.83301 10.5 2.5 16.5c0 4 2.33301 12.333 7 25zM753.002 1847c-1.33301 0.666992 -9.66699 7 -25 19l181 181h45zM0.000976562 1691
l356 356h45l-401 -400v44zM391.001 1807l-390.999 -394v-43l396 395c-2.66699 16 -4.33398 30 -5.00098 42zM580.002 1953c-1.33301 0.666992 -11 5 -29 13l81 81h45zM120.002 705.005c2.66699 -14 7.33301 -26 14 -36l-134 -132v48zM1226 1764
c-23.333 5.33301 -37 8.33301 -41 9l277 274h45zM683.001 119.005l-120 -119h-45l117 119h48zM960.001 119.005l-121 -119h-45l120 119h46zM1246 119.005l-122 -119h-47l119 119h50zM1523 119.005l-121 -119h-49l124 119h46zM1799 119.005l-122 -119h-47l119 119h50z" />
    <glyph glyph-name="N" unicode="N" 
d="M1756 274c-0.666992 0 0.00292969 18.167 2.00293 54.5s3 75.5 3 117.5c0.666992 83.333 0.666992 169.5 0 258.5s-12.667 177.833 -36 266.5c-22.667 85.333 -47.667 158.166 -75 218.499s-57 112.5 -89 156.5c-48 72 -113.333 133 -196 183s-169 82.667 -259 98
c6 -32.667 8.66699 -64.667 8 -96c-1.33301 -24 -12.666 -36 -33.999 -36c-24.667 0 -35.667 12 -33 36c2 88 -29.333 163.333 -94 226c-50.667 -53.333 -78 -115.333 -82 -186c-1.33301 -23.333 -13.333 -33.666 -36 -30.999c-21.333 0.666992 -32 13 -32 37l2 8
c-27.333 -8.66699 -56 -21 -86 -37c-19.333 -13.333 -35 -10 -47 10s-6.66699 35.667 16 47l65 33c-57.333 58.667 -122.666 106 -195.999 142c8 -92.667 33.333 -180.334 76 -263.001c11.333 -17.333 8.66602 -32.666 -8.00098 -45.999
c-18.667 -14.667 -34.334 -12.334 -47.001 6.99902c-4.66699 6.66699 -11.334 18.667 -20.001 36c-14 -14 -23.333 -24.333 -28 -31c-4.66699 -6 -12.834 -19.333 -24.501 -40s-20.167 -37.667 -25.5 -51c-6 -16.667 -8.5 -30.167 -7.5 -40.5s1.83301 -21.833 2.5 -34.5
c-6 -39.333 -19.5 -76.333 -40.5 -111l-80.5 -127l-72 -108c-16.667 -24 -29.334 -54.667 -38.001 -92c-6 -22.667 -6 -50.167 0 -82.5s19 -57.5 39 -75.5c30.667 -31.333 60.334 -45.666 89.001 -42.999c9.33301 0 21.833 3.66699 37.5 11s27.834 21.333 36.501 42
c17.333 38 31.666 57 42.999 57c16.667 0 25.667 -9.33301 27 -28c0 -4 -5.33301 -20.667 -16 -50c-6 -13.333 -14 -27.333 -24 -42c-12.667 -17.333 -18.334 -24.666 -17.001 -21.999c10.667 -38 28.334 -44.667 53.001 -20c7.33301 7.33301 15.666 21 24.999 41
s24 47 44 81c23.333 39.333 48.333 71.333 75 96s50.334 44.667 71.001 60c12 8.66699 26.667 18.667 44 30s40.666 23 69.999 35c23.333 9.33301 49.166 20.833 77.499 34.5s53.5 31.167 75.5 52.5c30.667 30 54.334 67 71.001 111c8.66699 24.667 12 55 10 91
c-6 22.667 5.33301 34 34 34c21.333 0 33.333 -11 36 -33c0 -75.333 -21.333 -144 -64 -206c14 -42.667 17.667 -89.334 11 -140.001c-6 -40.667 -20.167 -84.167 -42.5 -130.5s-67.5 -97.833 -135.5 -154.5c-138 -114.667 -203.333 -232.667 -196 -354h170.5h320.5h547z
M1079 1697c104.667 -6.66699 201.667 -33.6689 291 -81.002s165.333 -108 228 -182c44 -52 85.5 -114.667 124.5 -188s70.167 -151 93.5 -233c26.667 -95.333 43.5 -195.5 50.5 -300.5s10.5 -202.167 10.5 -291.5v-218h-155.5h-403.5h-671c-6 0 -8.83301 16.333 -8.5 49
s2.5 59 6.5 79c2.66699 16 9 38.667 19 68s26.667 65 50 107c10.667 21.333 36 52.5 76 93.5l138 142.5c30 30.667 53.5 69.334 70.5 116.001s24.167 89 21.5 127c-24.667 -20 -51.667 -36.333 -81 -49c-141.333 -50.667 -243.666 -124 -306.999 -220
c-4.66699 -6 -19.667 -33 -45 -81c-13.333 -25.333 -24.666 -42.666 -33.999 -51.999c-12.667 -12.667 -31 -19.667 -55 -21c-37.333 -2 -66.333 16 -87 54c-28 -8 -53 -11.333 -75 -10c-37.333 14 -64.333 29 -81 45c-34 34 -56.167 68 -66.5 102s-15.5 70.667 -15.5 110
c0 56 34.667 130 104 222c81.333 106 124.666 186.667 129.999 242c0 24 2.33301 51 7 81c4 20.667 12.333 40.667 25 60c8.66699 13.333 14.5 22.5 17.5 27.5s8.5 12.5 16.5 22.5c6 8 11 14.167 15 18.5s9 10.166 15 17.499c7.33301 8.66699 16.666 18.667 27.999 30
c-35.333 97.333 -49.666 197.666 -42.999 300.999c132.667 -47.333 244 -121.666 334 -222.999c22 75.333 65.333 136.333 130 183c53.333 -37.333 95.666 -86.666 126.999 -147.999zM400.003 881.998c-19.333 -12 -31.002 -28 -35.002 -48
c0.666992 -22 -9.66602 -34 -30.999 -36c-23.333 -2.66699 -35.333 7.33301 -36 30c2.66699 44 22.334 79 59.001 105c17.333 14 33.333 12.667 48 -4c14.667 -18 13 -33.667 -5 -47zM697.001 1359c8.66699 -13.333 12.001 -27.3359 10.001 -42.0029
c-6.66699 -42.667 -30.334 -60.667 -71.001 -54c-12 2 -21.667 6 -29 12c-2.66699 -3.33301 -6.66699 -10.666 -12 -21.999c-7.33301 -21.333 -21.333 -28.666 -42 -21.999c-20.667 8 -28.667 23 -24 45c30 76.667 84.333 129.334 163 158.001
c22.667 6.66699 37.667 0 45 -20c8 -21.333 2 -36 -18 -44l-11 -5.5zM1799 118.995l-122 -119h-47l119 119h50zM1523 118.995l-121 -119h-49l124 119h46zM1246 118.995l-122 -119h-47l119 119h50zM960.002 118.995l-121 -119h-45l120 119h46zM683.002 118.995l-120 -119h-45
l117 119h48zM1226 1764c-23.333 5.33301 -37 8.33301 -41 9l277 274h45zM120.002 704.995c2.66699 -14 7.33301 -26 14 -36l-134 -132v48zM580.001 1953c-1.33301 0.666992 -11 5 -29 13l81 81h45zM391.001 1807l-390.999 -394v-43l396 395
c-2.66699 16 -4.33398 30 -5.00098 42zM0.00195312 1691l356 356h45l-401 -400v44zM753.002 1847c-1.33301 0.666992 -9.66699 7 -25 19l181 181h45zM350.001 1487l-350 -351v-42l339 338c0 4 0.5 8.5 1.5 13.5s1.83301 10.5 2.5 16.5c0 4 2.33301 12.333 7 25zM1049 1868
c-10 10.667 -16.667 18.333 -20 23l156 156h45zM103.001 961.994c-8.66699 -16.667 -16.333 -39.333 -23 -68l-80 -80v44zM1422 1682c-4 2.66699 -14.333 8.33301 -31 17l347 348h45zM236.002 545.994c4 -2.66699 9 -5.33301 15 -8l18 -8l-269 -269v48zM1949 -0.00488281
h-43l142 140v-45zM0.00195312 1923v44l79 80h45zM1964 284.995v47l84 84v-46zM1962 558.995c-1.33301 18.667 -2 33.667 -2 45l88 87v-45zM1941 815.995l-6 40l113 114v-47zM1893 1048c-4 15.333 -8 28 -12 38l167 165v-45zM1813 1249c-3.33301 8 -8.33301 17.667 -15 29
l250 250v-45zM1710 1422l-18 24l356 358v-45zM567.002 325.995c-2.66699 -15.333 -4.33301 -32.667 -5 -52l-276 -274h-45zM1581 1567.99l-25 22l459 457c22 0 33 -2.33301 33 -7zM442.003 472.994c14 -4 27 -5.33301 39 -4l-468 -469c-8.66699 0 -13 10.667 -13 32z" />
    <glyph glyph-name="O" unicode="O" 
d="M1024 205l-540.001 -0.000976562c-26.667 66.667 -40 136.334 -40 209.001c0 123.333 35 234 105 332s160 168 270 210c-47.333 22 -85.833 55.167 -115.5 99.5s-44.5 94.5 -44.5 150.5c0 70 23.333 130.667 70 182s104 81 172 89c-54 40.667 -81 94.334 -81 161.001
c0 56 19.833 104 59.5 144s87.834 60 144.501 60c56 0 104 -20 144 -60s60 -88 60 -144c0 -66.667 -27 -120.334 -81 -161.001c68 -8 125.333 -37.667 172 -89s70 -112 70 -182c0 -56 -15.167 -106.167 -45.5 -150.5s-68.833 -77.5 -115.5 -99.5c110 -42 200 -112 270 -210
s105 -208.667 105 -332c0 -72 -13 -141.667 -39 -209h-540zM358.999 389.999c0 -11.333 0.666992 -25.667 2 -43l-348 -347c-8.66699 0 -13 10.667 -13 32zM1410 1400c-3.33301 4 -6.5 8 -9.5 12s-5.83301 8 -8.5 12l623 623c22 0 33 -2.33301 33 -7zM1472 1183
c0 3.33301 0.166992 6.5 0.5 9.5s0.5 6.16699 0.5 9.5c0 7.33301 -0.666992 16.333 -2 27l577 575v-45zM1470 901.998c-7.33301 6.66699 -16.333 13.667 -27 21l605 605v-45zM1594 750.998c-3.33301 4.66699 -6.5 9.33301 -9.5 14s-5.83301 9.66699 -8.5 15l472 471v-45z
M1674 548.997c-0.666992 3.33301 -4.33301 15.333 -11 36l385 385v-47zM1677 273.997c2.66699 12 5.33301 30.667 8 56l363 361v-45zM1630 -0.00292969l418 416v-46l-371 -370h-47zM-0.000976562 1923v44l79 80h45zM1949 -0.00292969h-43l142 140v-45zM474.999 782.997
l-475.001 -474v-48l416 416c16.667 38 36.334 73.333 59.001 106zM1300 1562c5.33301 22.667 8 40.667 8 54l430 431h45zM747.998 1564c-3.33301 12 -5.33301 24.667 -6 38l-742 -744v-44zM1092 1908c-8 2.66699 -20.667 5.33301 -38 8l131 131h45zM-0.00195312 1136
l909 911h45l-954 -953v42zM-0.00195312 1691l356 356h45l-401 -400v44zM-0.00195312 1413l632 634h45l-677 -677v43zM577.998 1163l-578 -578.001v-48l584 585c-3.33301 12.667 -5.33301 26.334 -6 41.001zM1255 1797c-5.33301 8.66699 -11.667 17 -19 25l226 225h45z
M358.997 116.995h45l-118 -117h-45zM636.997 116.995h45l-119 -117h-45zM911.997 116.995h45l-118 -117h-45zM1195 116.995h46l-117 -117h-47zM1471 116.995h49l-118 -117h-49z" />
    <glyph glyph-name="P" unicode="P" 
d="M1024 205l-540.001 -0.000976562c-26.667 66.667 -40 136.334 -40 209.001c0 123.333 35 234 105 332s160 168 270 210c-47.333 22 -85.833 55.167 -115.5 99.5s-44.5 94.5 -44.5 150.5c0 70 23.333 130.667 70 182s104 81 172 89c-54 40.667 -81 94.334 -81 161.001
c0 56 19.833 104 59.5 144s87.834 60 144.501 60c56 0 104 -20 144 -60s60 -88 60 -144c0 -66.667 -27 -120.334 -81 -161.001c68 -8 125.333 -37.667 172 -89s70 -112 70 -182c0 -56 -15.167 -106.167 -45.5 -150.5s-68.833 -77.5 -115.5 -99.5c110 -42 200 -112 270 -210
s105 -208.667 105 -332c0 -72 -13 -141.667 -39 -209h-540zM1024 272.999l491.002 0.000976562c14 48 21 95 21 141c0 104 -28.833 198.333 -86.5 283s-131.834 147 -222.501 187c-44 3.33301 -66 27.333 -66 72c0 35.333 22.333 61.333 67 78
c62 43.333 93 100.666 93 171.999c0 51.333 -17.333 96.333 -52 135s-76.667 61 -126 67c-40 3.33301 -60 26 -60 68c0 18.667 7.33301 36 22 52c36 28 54 64.667 54 110c0 37.333 -13.333 69.333 -40 96s-58.334 40 -95.001 40c-38 0 -70.167 -13.333 -96.5 -40
s-39.5 -58.667 -39.5 -96c0 -44.667 18 -81.334 54 -110.001c14.667 -14.667 22 -32 22 -52c0 -42 -19.667 -64.667 -59 -68c-50 -6 -92.167 -28.333 -126.5 -67s-51.5 -83.667 -51.5 -135c0 -71.333 31 -128.666 93 -171.999c44.667 -17.333 67 -43.333 67 -78
c0 -44.667 -22.333 -68.667 -67 -72c-90.667 -40 -164.667 -102.333 -222 -187s-86 -179 -86 -283c0 -49.333 7 -96.333 21 -141h491zM1471 117h49l-118 -117h-49zM1195 117h46l-117 -117h-47zM912.001 117h45l-118 -117h-45zM637.001 117h45l-119 -117h-45zM359.001 117h45
l-118 -117h-45zM1255 1797c-5.33301 8.66699 -11.667 17 -19 25l226 225h45zM578 1163l-578 -578.001v-48l584 585c-3.33301 12.667 -5.33301 26.334 -6 41.001zM0 1413l632 634h45l-677 -677v43zM0 1691l356 356h45l-401 -400v44zM0 1136l909 911h45l-954 -953v42z
M1092 1908c-8 2.66699 -20.667 5.33301 -38 8l131 131h45zM748 1564c-3.33301 12 -5.33301 24.667 -6 38l-742 -744v-44zM1300 1562c5.33301 22.667 8 40.667 8 54l430 431h45zM475 782.998l-475.001 -474v-48l416 416c16.667 38 36.334 73.333 59.001 106z
M1949 -0.00195312h-43l142 140v-45zM-0.000976562 1923v44l79 80h45zM1630 -0.00195312l418 416v-46l-371 -370h-47zM1677 273.998c2.66699 12 5.33301 30.667 8 56l363 361v-45zM1674 548.998c-0.666992 3.33301 -4.33301 15.333 -11 36l385 385v-47zM1594 750.998
c-3.33301 4.66699 -6.5 9.33301 -9.5 14s-5.83301 9.66699 -8.5 15l472 471v-45zM1470 901.997c-7.33301 6.66699 -16.333 13.667 -27 21l605 605v-45zM1472 1183c0 3.33301 0.166992 6.5 0.5 9.5s0.5 6.16699 0.5 9.5c0 7.33301 -0.666992 16.333 -2 27l577 575v-45z
M1410 1400c-3.33301 4 -6.5 8 -9.5 12s-5.83301 8 -8.5 12l623 623c22 0 33 -2.33301 33 -7zM358.999 389.997c0 -11.333 0.666992 -25.667 2 -43l-348 -347c-8.66699 0 -13 10.667 -13 32z" />
    <glyph glyph-name="Q" unicode="Q" 
d="M1814 1461c-38 0 -70.333 13.167 -97 39.5s-40 58.5 -40 96.5c0 37.333 13.333 69.5 40 96.5s59 40.5 97 40.5c37.333 0 69.333 -13.5 96 -40.5s40 -59.167 40 -96.5c0 -38 -13.333 -70.167 -40 -96.5s-58.667 -39.5 -96 -39.5zM1814 1531c44 0 66 22 66 66
c0 44.667 -22 67 -66 67c-44.667 0 -67 -22.333 -67 -67c0 -44 22.333 -66 67 -66zM236 1531c44.667 0 67 22 67 66c0 44.667 -22.333 67 -67 67c-44 0 -66 -22.333 -66 -67c0 -44 22 -66 66 -66zM236 1461c-38 0 -70.167 13.167 -96.5 39.5s-39.5 58.5 -39.5 96.5
c0 37.333 13.167 69.5 39.5 96.5s58.5 40.5 96.5 40.5s70.333 -13.5 97 -40.5s40 -59.167 40 -96.5c0 -38 -13.333 -70.167 -40 -96.5s-59 -39.5 -97 -39.5zM1444 1571c-38 0 -70.167 13.167 -96.5 39.5s-39.5 58.5 -39.5 96.5c0 37.333 13.167 69.333 39.5 96
s58.5 40 96.5 40s70.333 -13.333 97 -40s40 -58.667 40 -96c0 -38 -13.333 -70.167 -40 -96.5s-59 -39.5 -97 -39.5zM1444 1641c44.667 0 67 22 67 66s-22.333 66 -67 66c-44 0 -66 -22 -66 -66s22 -66 66 -66zM604 1641c44 0 66 22 66 66s-22 66 -66 66
c-44.667 0 -67 -22 -67 -66s22.333 -66 67 -66zM604 1571c-38 0 -70.333 13.167 -97 39.5s-40 58.5 -40 96.5c0 37.333 13.333 69.333 40 96s59 40 97 40c37.333 0 69.333 -13.333 96 -40s40 -58.667 40 -96c0 -38 -13.333 -70.167 -40 -96.5s-58.667 -39.5 -96 -39.5z
M1559 319c-122 50.667 -299 76 -531 76c-236.667 0 -415.667 -26 -537 -78c116.667 -46 294.667 -69 534 -69c114.667 0 219.5 6.33301 314.5 19s168.167 30 219.5 52zM1640 283c-32.667 -28.667 -106 -52.667 -220 -72s-245.333 -29 -394 -29
c-151.333 0 -284.333 10 -399 30s-187 45 -217 75l63 240l-28 157l-88 153l-85 622l49 19l274 -462l6 550l68 12l209 -553l112 595h69l112 -593l207 551l69 -12l6 -550l275 463l47 -22l-83 -619l-89 -153l-28 -159zM1534 411l-30 113c-130.667 28.667 -290.667 43 -480 43
c-187.333 0 -347 -14.333 -479 -43l-31 -114c124 37.333 294.333 56 511 56c211.333 0 381 -18.333 509 -55zM1474 917c15.333 -4.66699 32.333 -7 51 -7c40.667 0 78.667 12.667 114 38l55 346zM571 922l-215 371l55 -338c38 -26.667 75 -40 111 -40
c14 0 30.333 2.33301 49 7zM825 978l-164 449v-457c2 2.66699 5 6 9 10c13.333 28 35.333 42 66 42c25.333 0 46 -10.667 62 -32zM1387 964l-0.00195312 463l-165 -454c12.667 4.66699 23.334 10.667 32.001 18c13.333 16.667 31.333 25 54 25c26.667 0 48 -11.667 64 -35
c2 -2.66699 4.33301 -5.5 7 -8.5s5.33398 -5.83301 8.00098 -8.5zM1110 983l-84.999 489.001l-85 -483c2 1.33301 6.66699 4.66602 14 9.99902c15.333 30 38.666 45 69.999 45c34 0 56 -15 66 -45c4 -4 10.667 -9.33301 20 -16zM1558 744.001l64.999 115
c-32 -12.667 -64.667 -19 -98 -19c-89.333 0 -160.666 36.333 -213.999 109c-40 -33.333 -84.667 -50 -134 -50c-64 0 -115 25 -153 75c-42.667 -46.667 -93.667 -70 -153 -70c-48 0 -92 16.333 -132 49c-56 -71.333 -128.333 -107 -217 -107c-34 0 -67.667 6.33301 -101 19
l70 -120c129.333 37.333 307 56 533 56c230 0 408 -19 534 -57zM1533 684.001c-128.667 32.667 -297.001 49 -505.001 49c-213.333 0 -383.666 -16.667 -510.999 -50l15 -96c130 30.667 295.333 46 496 46c199.333 0 362 -15 488 -45zM1024 1691c44.667 0 67 22.333 67 67
c0 44 -22.333 66 -67 66c-44 0 -66 -22 -66 -66c0 -44.667 22 -67 66 -67zM1024 1621c-38 0 -70.167 13.333 -96.5 40s-39.5 59 -39.5 97c0 37.333 13.167 69.333 39.5 96s58.5 40 96.5 40c37.333 0 69.5 -13.333 96.5 -40s40.5 -58.667 40.5 -96
c0 -38 -13.5 -70.333 -40.5 -97s-59.167 -40 -96.5 -40zM1263 1804l-22.001 -22c-1.33301 6 -2.66602 12.333 -3.99902 19s-2.33301 13 -3 19l228 227h45l-164 -162c-34 -18 -60.667 -45 -80 -81zM270.996 855.001l6 -41l-277 -277v48zM406.996 1776l-22.001 -21
c-8.66699 8.66699 -17 16 -25 22l272 270h45l-146 -143c-65.333 -23.333 -106.666 -66 -123.999 -128zM57.9951 1471c2.66699 -4 9.33301 -12 20 -24l-78 -77v43zM151.994 1798c-54 -22.667 -92.333 -60.333 -115 -113l-37 -38v44l356 356h45zM763.994 1855
c-8 8 -16.333 15.333 -25 22l170 170h45zM204.994 1341l5 -38l-210 -209v42zM1131.99 1947c-14.667 7.33301 -25.667 12.333 -33 15l86 85h45zM237.994 1097l5 -41l-243 -242v44zM1597.99 1862c-6.66699 6.66699 -15 13 -25 19l165 166h45zM357.994 667.002l18 -31
l-376 -375v48zM1948.99 0.00195312h-43l142 140v-45zM-0.00585938 1923v44l79 80h45zM1629.99 0.00195312l418 416v-46l-371 -370h-47zM1723.99 319.002l-10 38l334 334v-45zM1502.99 149.002c24 5.33301 44.667 10.333 62 15l-163 -164h-49zM1645.99 520.002l11 60l391 390
v-47zM1188.99 111.002c18 2 35 3 51 3l-116 -114h-47zM1790.99 950.002l8 53l249 248v-45zM947.994 109.002l-109 -109h-45l109 110c20 0 35 -0.333008 45 -1zM1834.99 1270l7 53l206 205v-45zM648.994 131.002c6.66699 -0.666992 20 -2.33301 40 -5l-126 -126h-45z
M1999.99 1712c-4 5.33301 -10.333 13.333 -19 24l67 68v-45zM426.994 184.003c10 -5.33301 21 -9.33301 33 -12l-174 -172h-45zM1823.99 1814c-4 1.33301 -7.33398 2 -10.001 2c-13.333 0 -24.666 -1.33301 -33.999 -4l235 235c22 0 33 -2.33301 33 -7zM337.993 369.003
l-338 -337c0 -21.333 4.33301 -32 13 -32l309 308z" />
    <glyph glyph-name="R" unicode="R" 
d="M1349 1365l127 103h-904l128 -103h649zM1459 649l-103 102h-663l-105 -102h871zM1536 1536v239h-137v-137h-308v137h-135v-137h-307v137h-137v-239h1024zM1314 1297h-580v-478h580v478zM1484 580h-920v-136h920v136zM1639 376h-1230v-103h1230v103zM1161 1706h170v137
h274v-375l-222 -171v-478l170 -170v-205h153v-239h-1365v239h153v205l171 170v478l-222 171v375h273v-137h171v137h274v-137zM360 1774l-360 -361v-43l360 360v44zM359 1497l-359 -361v-42l359 358v45zM580 1118l-580 -581v48l580 580v-47zM579 842v46l-579 -579v-48z
M253 285v-46l-240 -239c-8.66699 0 -13 10.667 -13 32zM637 119h46l-120 -119h-45zM913 119h44l-118 -119h-45zM1198 119h46l-120 -119h-47zM1791 390l1 46l256 255v-45zM1468 905l1 44l579 579v-45zM1468 1182v43l580 579v-45zM1688 1681v39l327 327
c22 0 33 -2.33301 33 -7zM1386 1927h-44l120 120h45zM1111 1927h-44l118 120h45zM835 1928l-47 -1l121 120h45zM0 1691l356 356h45l-401 -400v44zM504 1317l-504 -503v44l478 480zM1949 0h-43l142 140v-45zM0 1923v44l79 80h45zM1630 0l418 416v-46l-371 -370h-47zM1522 119
l-120 -119h-49l121 119h48zM1579 736l-24 24l493 491v-45zM1639 516v46l409 408v-47zM1663 1927h-45l120 120h45zM361 119h44l-119 -119h-45zM557 1928h-45l120 119h45z" />
    <glyph glyph-name="S" unicode="S" 
d="M409 0l-171 -0.000976562c0 65.333 -23.333 121.333 -70 168s-102.667 70.334 -168 71.001v171c112 -0.666992 208.167 -41.167 288.5 -121.5s120.5 -176.5 120.5 -288.5zM0 136.999c37.333 0 69.167 -13.667 95.5 -41s39.5 -59.333 39.5 -96h-101
c0 22 -11.333 33.667 -34 35v102z" />
    <glyph glyph-name="T" unicode="T" 
d="M1554 444h-69l-1 16h-920v-16h-70v205l171 170v478l-222 171v375h273v-137h171v137h274v-137h170v137h274v-375l-222 -171v-478l170 -170zM1024 1552h-512v-46l73 -55h879l71 55v46h-511zM1024 1383h-350l60 -47v-57h580v57l60 47h-350zM1024 837h-290v-46l-60 -58h700
l-60 58v46h-290zM1024 665h-414l-46 -43v-58h920v58l-46 43h-414zM504 1317l-504 -503v44l478 480zM580 1118l-580 -581v48l580 580v-47zM359 1497l-359 -361v-42l359 358v45zM360 1774l-360 -361v-43l360 360v44zM579 842v46l-579 -579v-48zM1791 390l1 46l256 255v-45z
M1468 905l1 44l579 579v-45zM1468 1182v43l580 579v-45zM1688 1681v39l327 327c22 0 33 -2.33301 33 -7zM1386 1927h-44l120 120h45zM1111 1927h-44l118 120h45zM835 1928l-47 -1l121 120h45zM0 1691l356 356h45l-401 -400v44zM0 1923v44l79 80h45zM1579 736l-24 24l493 491
v-45zM1639 516v46l409 408v-47zM1663 1927h-45l120 120h45zM557 1928h-45l120 119h45zM361 119h45l-120 -119h-45zM1523 119l-121 -119h-49l121 119h49zM1630 0l418 416v-46l-371 -370h-47zM1949 0h-43l142 140v-45zM1198 119h46l-120 -119h-47zM914 119h44l-119 -119h-45z
M637 119h46l-120 -119h-45zM253 285v-46l-240 -239c-8.66699 0 -13 10.667 -13 32zM1485 444v-86h-921l1 86h-223v-239h1365v239h-222z" />
    <glyph glyph-name="V" unicode="V" 
d="M1290 582l-42 102c-68 14.667 -142.667 22 -224 22c-80.667 0 -154.667 -7.33301 -222 -22l-42 -101c82.667 20.667 170.667 31 264 31c92 0 180.667 -10.667 266 -32zM1206 788l-29 70v27c-50.667 7.33301 -101.667 11 -153 11c-50 0 -100.667 -3.66699 -152 -11l-1 -27
l-27 -70c56.667 10 116.667 15 180 15c64 0 124.667 -5 182 -15zM1171 410c-26.667 20 -53.333 51.668 -80 95.001h-32c0 -32.667 7.66699 -64.334 23 -95.001h89zM965.001 410.001c15.333 32.667 23 64.334 23 95.001h-32c-26 -42.667 -53 -74.334 -81 -95.001h90z
M1024 392.001c-9.33301 -38 -20.668 -64.3311 -34.001 -78.998s-31 -30 -53 -46c-24 -16.667 -52.333 -30.834 -85 -42.501s-69 -14.5 -109 -8.5l-281 39c-11.333 1.33301 -21.5 1.33301 -30.5 0s-17.5 -2 -25.5 -2c-14 0 -31.833 -3.16699 -53.5 -9.5
s-38.5 -15.5 -50.5 -27.5l-97 159c12 13.333 22.667 22.666 32 27.999s20.333 11 33 17c38.667 18 80 29 124 33c18.667 1.33301 37 1.66602 55 0.999023s36.667 0 56 2c36 -6 72.167 -11.5 108.5 -16.5l109.5 -15.5c40 0 67 4 81 12c7.33301 4 19 11.333 35 22
s32 26.334 48 47.001c-35.333 4 -71.333 10.833 -108 20.5s-69 19.834 -97 30.501l104 258c-52 30 -88.333 54.167 -109 72.5s-37 39.5 -49 63.5c-17.333 30.667 -28.5 60.334 -33.5 89.001s-7.16699 54.334 -6.5 77.001c0.666992 40 10.167 84.167 28.5 132.5
s52.833 91.5 103.5 129.5c42 32 83 65 123 99s79.667 73.667 119 119c-49.333 25.333 -74 65.666 -74 120.999c0 37.333 13.167 69.333 39.5 96s58.5 40 96.5 40c37.333 0 69.333 -13.333 96 -40s40 -58.667 40 -96c0 -54.667 -24.667 -95 -74 -121
c38.667 -45.333 77.834 -85 117.501 -119s81.167 -67 124.5 -99c50 -38 84 -81.167 102 -129.5s27.667 -92.5 29 -132.5c0 -22.667 -2.33301 -48.334 -7 -77.001s-15.334 -58.334 -32.001 -89.001c-13.333 -24 -30.166 -45.167 -50.499 -63.5s-56.166 -42.5 -107.499 -72.5
l104 -258c-29.333 -10.667 -62.333 -20.834 -99 -30.501s-72 -16.5 -106 -20.5c15.333 -20.667 31 -36.334 47 -47.001s28 -18 36 -22c14 -8 41 -12 81 -12l108.5 15.5c36.333 5 72.833 10.5 109.5 16.5c18 -2 36.167 -2.66699 54.5 -2s37.166 0.333984 56.499 -0.999023
c42.667 -4 84 -15 124 -33c12 -6 22.833 -11.667 32.5 -17s20.5 -14.666 32.5 -27.999l-98 -159c-12 12 -28.833 21.167 -50.5 27.5s-39.167 9.5 -52.5 9.5c-8.66699 0 -17.5 0.666992 -26.5 2s-19.167 1.33301 -30.5 0l-280 -39c-40 -6 -77.167 -3.33301 -111.5 8
s-62.5 26.333 -84.5 45c-22 18 -39.5 33.5 -52.5 46.5s-23.833 38.5 -32.5 76.5zM986.999 1136v-85c0 -24.667 12.333 -37 37 -37v0c24.667 0 37 12.333 37 37v86h90c23.333 0 35 12 35 36v0c0 24 -11.667 36 -35 36h-90v90c0 24.667 -12.333 37 -37 37v0
c-24.667 0 -37 -12.333 -37 -37v-90h-88c-23.333 0 -35 -12 -35 -36v0c0 -24 11.667 -36 35 -36zM195.999 228.003l17 -28l-200 -200c-8.66699 0 -13 10.667 -13 32zM620.999 652.003l-30 -73l-39 -39c-6.66699 0 -19 1.66699 -37 5zM1415 1405
c-5.33301 5.33301 -13 11.333 -23 18l623 624c22 0 33 -2.33301 33 -7zM1525 1236l-12 32l535 536v-45zM1518 953.003c7.33301 18 13.667 39.667 19 65l511 510v-45zM1446 605.003l-13 32l615 614v-45zM1668 544.003c-10 0.666992 -25.333 1 -46 1l426 425v-47z
M1878 474.003c-6 4.66699 -15.667 11 -29 19l199 198v-45zM1630 0.00292969l418 416v-46l-371 -370h-47zM0 1923v44l79 80h45zM1949 0.00292969h-43l142 140v-45zM570 878.003c9.33301 -10.667 16.667 -18.667 22 -24l-592 -593v48zM1263 1527
c-5.33301 4 -13.333 10.667 -24 20l499 500h45zM804.001 1664l-804 -806v-44l814 815c-2.66699 7.33301 -6 19 -10 35zM1102 1919c-10.667 4 -22 7.33301 -34 10l117 118h45zM0.000976562 1136l909 911h45l-954 -953v42zM0.000976562 1691l356 356h45l-401 -400v44z
M0.000976562 1413l632 634h45l-677 -677v43zM502.001 1086c0 -8.66699 1.33301 -23 4 -43l-506 -506v48zM1238 1778l-14 32l238 237h45zM392.001 149.003h44l-150 -149h-45zM668.001 149.003h47l-152 -149h-45zM944.001 149.003h45l-150 -149h-45zM1227 149.003l47 1
l-150 -150h-47zM1503 149.003h49l-150 -149h-49z" />
    <glyph glyph-name="W" unicode="W" 
d="M1588 793c-55.333 20 -133.166 36.499 -233.499 49.499s-211.166 19.5 -332.499 19.5c-118.667 0 -227.334 -6.16699 -326.001 -18.5s-176.334 -28.5 -233.001 -48.5l50 -91c56 16.667 128.667 28.667 218 36s187 11 293 11s204 -3.66699 294 -11
s163 -19.666 219 -36.999zM1814 1461c-38 0 -70.333 13.167 -97 39.5s-40 58.5 -40 96.5c0 37.333 13.333 69.5 40 96.5s59 40.5 97 40.5c37.333 0 69.333 -13.5 96 -40.5s40 -59.167 40 -96.5c0 -38 -13.333 -70.167 -40 -96.5s-58.667 -39.5 -96 -39.5zM236 1461
c-38 0 -70.167 13.167 -96.5 39.5s-39.5 58.5 -39.5 96.5c0 37.333 13.167 69.5 39.5 96.5s58.5 40.5 96.5 40.5s70.333 -13.5 97 -40.5s40 -59.167 40 -96.5c0 -38 -13.333 -70.167 -40 -96.5s-59 -39.5 -97 -39.5zM1444 1571c-38 0 -70.167 13.167 -96.5 39.5
s-39.5 58.5 -39.5 96.5c0 37.333 13.167 69.333 39.5 96s58.5 40 96.5 40s70.333 -13.333 97 -40s40 -58.667 40 -96c0 -38 -13.333 -70.167 -40 -96.5s-59 -39.5 -97 -39.5zM604 1571c-38 0 -70.333 13.167 -97 39.5s-40 58.5 -40 96.5c0 37.333 13.333 69.333 40 96
s59 40 97 40c37.333 0 69.333 -13.333 96 -40s40 -58.667 40 -96c0 -38 -13.333 -70.167 -40 -96.5s-58.667 -39.5 -96 -39.5zM1640 282.999c-32.667 -28.667 -106 -52.667 -220 -72s-245.333 -29 -394 -29c-151.333 0 -284.333 10 -399 30s-187 45 -217 75l63 240l-28 157
l-88 153l-85 622l49 19l274 -462l6 550l68 12l209 -553l112 595h69l112 -593l207 551l69 -12l6 -550l275 463l47 -22l-83 -619l-89 -153l-28 -159zM1544 314.999l-30.001 118.001c-130 30 -293.333 45 -490 45c-194.667 0 -357.334 -15 -488.001 -45l-32 -119
c126.667 38.667 300.334 58 521.001 58c106 0 204.333 -5.33301 295 -16s165.334 -24.334 224.001 -41.001zM1518 614c-122.667 34 -286.001 51 -490.001 51c-205.333 0 -370.666 -17.333 -495.999 -52l15 -101c126 32.667 286.333 49 481 49c194 0 352 -16 474 -48z
M1024 1621c-38 0 -70.167 13.333 -96.5 40s-39.5 59 -39.5 97c0 37.333 13.167 69.333 39.5 96s58.5 40 96.5 40c37.333 0 69.5 -13.333 96.5 -40s40.5 -58.667 40.5 -96c0 -38 -13.5 -70.333 -40.5 -97s-59.167 -40 -96.5 -40zM337.998 369l-338 -337
c0 -21.333 4.33301 -32 13 -32l309 308zM1824 1814c-4 1.33301 -7.33398 2 -10.001 2c-13.333 0 -24.666 -1.33301 -33.999 -4l235 235c22 0 33 -2.33301 33 -7zM426.997 184c10 -5.33301 21 -9.33301 33 -12l-174 -172h-45zM2000 1712c-4 5.33301 -10.333 13.333 -19 24
l67 68v-45zM648.997 131c6.66699 -0.666992 20 -2.33301 40 -5l-126 -126h-45zM1835 1270l7 53l206 205v-45zM947.997 109.001l-109 -109h-45l109 110c20 0 35 -0.333008 45 -1zM1791 950.001l8 53l249 248v-45zM1189 111.001c18 2 35 3 51 3l-116 -114h-47zM1646 520.001
l11 60l391 390v-47zM1503 149.001c24 5.33301 44.667 10.333 62 15l-163 -164h-49zM1724 319.001l-10 38l334 334v-45zM1630 0.000976562l418 416v-46l-371 -370h-47zM-0.00292969 1923v44l79 80h45zM1949 0.000976562h-43l142 140v-45zM357.997 667.001l18 -31l-376 -375
v48zM1598 1862c-6.66699 6.66699 -15 13 -25 19l165 166h45zM237.997 1097l5 -41l-243 -242v44zM1132 1947c-14.667 7.33301 -25.667 12.333 -33 15l86 85h45zM204.997 1341l5 -38l-210 -209v42zM763.997 1855c-8 8 -16.333 15.333 -25 22l170 170h45zM151.997 1798
c-54 -22.667 -92.333 -60.333 -115 -113l-37 -38v44l356 356h45zM57.9971 1471c2.66699 -4 9.33301 -12 20 -24l-78 -77v43zM406.996 1776l-22.001 -21c-8.66699 8.66699 -17 16 -25 22l272 270h45l-146 -143c-65.333 -23.333 -106.666 -66 -123.999 -128zM270.995 855.002
l6 -41l-277 -277v48zM1263 1804l-22.001 -22c-1.33301 6 -2.66602 12.333 -3.99902 19s-2.33301 13 -3 19l228 227h45l-164 -162c-34 -18 -60.667 -45 -80 -81z" />
    <glyph glyph-name="X" unicode="X" 
d="M1170 1024l481.999 -482c48.667 -48.667 48.667 -97.334 0 -146.001v0c-48.667 -48.667 -97 -48.667 -145 0l-483 482l-482 -482c-48.667 -48.667 -97.667 -48.667 -147 0v0c-48 48.667 -48 97.667 0 147l482 482l-482 482c-48.667 48.667 -48.667 97.334 0 146.001v0
c48.667 48.667 97.334 48.667 146.001 0l483 -482l481 482c48.667 47.333 97.667 47.333 147 0v0c48 -50 48 -99 0 -147zM339.999 326l-327 -326c-8.66699 0 -13 10.667 -13 32l318 316c2 -2.66699 4 -5.16699 6 -7.5s4.33301 -4.5 7 -6.5v0c4 -4 7 -6.66699 9 -8z
M1701 1692l347 348c0 4.66699 -11 7 -33 7l-335 -336l15 -12v-1c0.666992 -1.33301 1.5 -2.5 2.5 -3.5s2.16699 -1.83301 3.5 -2.5zM1048 759l-23 23l-784 -782h45zM1290 1002l-22 22l780 780v-45zM1186 621l-623 -621h-45l645 643zM1428 863l-23 23l643 642v-45zM1324 483
l-485 -483h-45l507 505zM1567 725l-24 23l505 503v-45zM1466 341l-342 -341h-47l366 365zM1708 583l-23 24l363 363v-47zM1353 0l695 691v-45l-646 -646h-49zM1630 0l418 416v-46l-371 -370h-47zM-0.000976562 1923v44l79 80h45zM1949 0h-43l142 140v-45zM772.999 1034
l-773 -773v48l749 749zM1014 1277l-23 23l747 747h45zM495.999 1311l-22 22l-474 -475v-44zM737.999 1553l-23 23l470 471h45zM356.999 1450l-357 -356v42l335 335zM598.999 1692l355 355h-45l-332 -333zM-0.000976562 1691l356 356h45l-401 -400v44zM-0.000976562 1413
l632 634h45l-677 -677v43zM634.999 1172l-635 -635v48l612 610zM875.999 1415l-23 23l609 609h45z" />
    <glyph glyph-name="a" unicode="a" 
d="M1912 0c0 36.667 13.168 68.167 39.501 94.5s58.166 39.833 95.499 40.5v-103c-21.333 -1.33301 -32 -12 -32 -32h-103z" />
    <glyph glyph-name="b" unicode="b" 
d="M988 1138l-83 1c-22.667 0 -34 11.333 -34 34v0c0 22.667 11.333 34 34 34h83v86c0 23.333 12 35 36 35v0c23.333 0 35 -11.667 35 -35v-86h86c22 0 33 -11.333 33 -34v0c0 -22.667 -11 -34 -33 -34h-86v-82c0 -24 -11.667 -36 -35 -36v0c-24 0 -36 12 -36 36v81z
M1024 560c45.333 0 89.501 3.83301 132.501 11.5s84.5 16.834 124.5 27.501c-78 20.667 -163.667 31 -257 31c-94.667 0 -180.334 -10.333 -257.001 -31c38.667 -10.667 79.667 -19.834 123 -27.501s88 -11.5 134 -11.5zM1024 1649c45.333 0 68 22.667 68 68
s-22.667 68 -68 68s-68 -22.667 -68 -68s22.667 -68 68 -68zM1024 700c78 0 153.001 -7.66699 225.001 -23l-48 123c-58.667 9.33301 -117.667 14 -177 14c-60.667 0 -120 -4.66699 -178 -14l-48 -123c71.333 15.333 146.666 23 225.999 23zM1024 882
c64.667 0 126.668 -5 186.001 -15c65.333 23.333 112.666 59.666 141.999 108.999c25.333 42.667 38 89.667 38 141c0 30.667 -7.66699 64.5 -23 101.5s-40.333 70.5 -75 100.5l-129 107.5c-46.667 39 -93 84.5 -139 136.5c-46.667 -52 -93.334 -97.5 -140.001 -136.5
l-128 -107.5c-35.333 -30 -60.5 -63.5 -75.5 -100.5s-22.5 -70.833 -22.5 -101.5c0 -51.333 12.333 -98.333 37 -141c28.667 -49.333 76.334 -85.666 143.001 -108.999c58.667 10 120.667 15 186 15zM988.003 505h-31.998c-37.333 -60 -73 -97.667 -107 -113
c-16 -8 -33.667 -15.333 -53 -22s-41.666 -10 -66.999 -10c-4.66699 0 -40.334 5.33301 -107.001 16c-32 4.66699 -57.333 9.66699 -76 15s-33.334 8.66602 -44.001 9.99902c-38 4.66699 -82.333 2.66699 -133 -6c-30.667 -5.33301 -59.334 -15 -86.001 -29l48 -78
c8 8 18.5 13.167 31.5 15.5s24.833 4.83301 35.5 7.5c28 4.66699 54.667 5.33398 80 2.00098c8.66699 -2 25.667 -4.5 51 -7.5s59 -7.83301 101 -14.5c50 -7.33301 84 -11 102 -11c70 0 123.667 13.333 161 40c22.667 17.333 44.167 41.5 64.5 72.5s30.5 68.5 30.5 112.5z
M1024 392c-9.33301 -38 -20.668 -64.3311 -34.001 -78.998s-31 -30 -53 -46c-24 -16.667 -52.333 -30.834 -85 -42.501s-69 -14.5 -109 -8.5l-281 39c-11.333 1.33301 -21.5 1.33301 -30.5 0s-17.5 -2 -25.5 -2c-14 0 -31.833 -3.16699 -53.5 -9.5s-38.5 -15.5 -50.5 -27.5
l-97 159c12 13.333 22.667 22.666 32 27.999s20.333 11 33 17c38.667 18 80 29 124 33c18.667 1.33301 37 1.66602 55 0.999023s36.667 0 56 2c36 -6 72.167 -11.5 108.5 -16.5l109.5 -15.5c40 0 67 4 81 12c7.33301 4 19 11.333 35 22s32 26.334 48 47.001
c-35.333 4 -71.333 10.833 -108 20.5s-69 19.834 -97 30.501l104 258c-52 30 -88.333 54.167 -109 72.5s-37 39.5 -49 63.5c-17.333 30.667 -28.5 60.334 -33.5 89.001s-7.16699 54.334 -6.5 77.001c0.666992 40 10.167 84.167 28.5 132.5s52.833 91.5 103.5 129.5
c42 32 83 65 123 99s79.667 73.667 119 119c-49.333 25.333 -74 65.666 -74 120.999c0 37.333 13.167 69.333 39.5 96s58.5 40 96.5 40c37.333 0 69.333 -13.333 96 -40s40 -58.667 40 -96c0 -54.667 -24.667 -95 -74 -121c38.667 -45.333 77.834 -85 117.501 -119
s81.167 -67 124.5 -99c50 -38 84 -81.167 102 -129.5s27.667 -92.5 29 -132.5c0 -22.667 -2.33301 -48.334 -7 -77.001s-15.334 -58.334 -32.001 -89.001c-13.333 -24 -30.166 -45.167 -50.499 -63.5s-56.166 -42.5 -107.499 -72.5l104 -258
c-29.333 -10.667 -62.333 -20.834 -99 -30.501s-72 -16.5 -106 -20.5c15.333 -20.667 31 -36.334 47 -47.001s28 -18 36 -22c14 -8 41 -12 81 -12l108.5 15.5c36.333 5 72.833 10.5 109.5 16.5c18 -2 36.167 -2.66699 54.5 -2s37.166 0.333984 56.499 -0.999023
c42.667 -4 84 -15 124 -33c12 -6 22.833 -11.667 32.5 -17s20.5 -14.666 32.5 -27.999l-98 -159c-12 12 -28.833 21.167 -50.5 27.5s-39.167 9.5 -52.5 9.5c-8.66699 0 -17.5 0.666992 -26.5 2s-19.167 1.33301 -30.5 0l-280 -39c-40 -6 -77.167 -3.33301 -111.5 8
s-62.5 26.333 -84.5 45c-22 18 -39.5 33.5 -52.5 46.5s-23.833 38.5 -32.5 76.5zM1059 505.002c0 -44 10.165 -81.5 30.498 -112.5s42.166 -55.167 65.499 -72.5c36.667 -26.667 90.334 -40 161.001 -40c17.333 0 51.333 3.66699 102 11
c41.333 6.66699 74.666 11.5 99.999 14.5s42.333 5.5 51 7.5c25.333 3.33301 52 2.66602 80 -2.00098c10.667 -2.66699 22.5 -5.16699 35.5 -7.5s23.833 -7.5 32.5 -15.5l48 78c-27.333 14 -56.333 23.667 -87 29c-50.667 8.66699 -95 10.667 -133 6
c-11.333 -1.33301 -26.166 -4.66602 -44.499 -9.99902s-43.166 -10.333 -74.499 -15c-67.333 -10.667 -103 -16 -107 -16c-26 0 -48.667 3.33301 -68 10s-36.666 14 -51.999 22c-35.333 16 -71.333 53.667 -108 113h-32z" />
    <glyph glyph-name="d" unicode="d" 
d="M1912 2049h102.999c0 -21.333 10.667 -32.333 32 -33v-103c-37.333 0 -69.166 13.167 -95.499 39.5s-39.5 58.5 -39.5 96.5z" />
    <glyph glyph-name="f" unicode="f" 
d="M135 2049c0 -38 -13.168 -70.167 -39.501 -96.5s-58.166 -39.5 -95.499 -39.5v103c21.333 0.666992 32 11.667 32 33h103z" />
    <glyph glyph-name="k" unicode="k" 
d="M524 583c126.667 32 294.667 48 504 48c205.333 0 371 -15.333 497 -46l25 147c-134 35.333 -309.333 53 -526 53c-218 0 -393 -18 -525 -54zM463 522l-32.998 187.001c-0.666992 0 -1.66699 1.33301 -3 4c-3.33301 4.66699 -12.833 10.834 -28.5 18.501
s-33.834 20.834 -54.501 39.501c-29.333 24.667 -52.166 44.667 -68.499 60s-31.166 32 -44.499 50c-40.667 56 -63.334 123.667 -68.001 203c-6.66699 76.667 24.333 153 93 229c69.333 76 163 111.667 281 107c44 -2.66699 95.667 -13.334 155 -32.001l59.5 -23.5
l60.5 -23.5c10.667 -5.33301 20 -10.666 28 -15.999c-3.33301 14 -5 28 -5 42c0 52 18.5 96.333 55.5 133s81.5 55.334 133.5 56.001c52 0 96.333 -18.5 133 -55.5s55 -81.167 55 -132.5c0 -10.667 -1.33301 -24.667 -4 -42c9.33301 6 18.333 11 27 15
c30.667 13.333 71 29 121 47c57.333 19.333 109 30.333 155 33c118 5.33301 211.333 -30.334 280 -107.001c67.333 -76 98.666 -152.333 93.999 -229c-5.33301 -79.333 -28.333 -147 -69 -203c-13.333 -18 -28.333 -34.833 -45 -50.5s-39 -35.5 -67 -59.5
c-22 -18.667 -40.667 -31.834 -56 -39.501s-24.333 -13.834 -27 -18.501c-0.666992 -1.33301 -1.33398 -2.33301 -2.00098 -3s-1 -1.33398 -1 -2.00098l-32 -188l66 -247c-33.333 -30 -108 -54.667 -224 -74s-250 -29 -402 -29c-154.667 0 -290.667 10.167 -408 30.5
s-191 45.833 -221 76.5zM1544 405.001l-30 115c-132 29.333 -295.333 44 -490 44c-194 0 -357 -14.667 -489 -44l-32 -116c127.333 37.333 301.333 56 522 56c219.333 0 392.333 -18.333 519 -55zM1570 311.001c-128.667 52 -309.334 78 -542.001 78
c-241.333 0 -424 -26.667 -548 -80c117.333 -46.667 299 -70 545 -70c117.333 0 224.333 6.5 321 19.5s171.334 30.5 224.001 52.5zM989.002 853.001c-0.666992 26 -1.66797 51.834 -3.00098 77.501s-6.33301 54.167 -15 85.5c-27.333 89.333 -68.666 161.333 -123.999 216
c-28.667 28 -72.667 54 -132 78c-68 26.667 -132.333 40 -193 40c-105.333 0 -183.333 -37.667 -234 -113c-28.667 -40 -43 -90 -43 -150c0 -65.333 16 -119 48 -161c19.333 -24.667 44 -49.334 74 -74.001l84 -67c116.667 42 296 64.667 538 68zM1024 1039
c4.66699 18.667 8.66406 31.668 11.9971 39.001c6.66699 26 14.334 48 23.001 66c4 11.333 9.83301 24.5 17.5 39.5s15.834 32.167 24.501 51.5c5.33301 11.333 11 25.166 17 41.499l18 48.5c5.33301 13.333 8 27.666 8 42.999c0 32.667 -11.667 60.5 -35 83.5
s-51.666 34.5 -84.999 34.5c-79.333 0 -119 -39.667 -119 -119c0 -15.333 2.66699 -29.666 8 -42.999c14.667 -43.333 26 -73.333 34 -90l24 -51.5l19 -39.5c8.66699 -22 16 -44 22 -66c1.33301 -4 5.33301 -16.667 12 -38zM1058 853.003
c114.667 -1.33301 219.667 -8.16602 315 -20.499s170 -27.833 224 -46.5l83 66.5c30 24.333 55 49.166 75 74.499c32 40.667 48 94.334 48 161.001c0 60 -14.333 110 -43 150c-51.333 74.667 -129.333 112 -234 112c-62.667 0 -127 -13 -193 -39
c-58 -23.333 -102 -49.333 -132 -78c-56 -56 -97.333 -128 -124 -216c-9.33301 -31.333 -14.833 -59.833 -16.5 -85.5s-2.5 -51.834 -2.5 -78.501zM1059 1559h-71v131h-83c-22.667 0 -34 11 -34 33v1c0 22 11.333 33 34 33h83v85c0 23.333 12 35 36 35v0
c23.333 0 35 -11.667 35 -35v-85h86c22 0 33 -11 33 -33v-1c0 -22 -11 -33 -33 -33l-85 -1z" />
    <glyph glyph-name="l" unicode="l" 
d="M1133 865c0 19.333 2.16992 46.8359 6.50293 82.5029s11.166 63.5 20.499 83.5c24.667 54 60 104 106 150c13.333 13.333 42 31.333 86 54c43.333 21.333 89.666 32 138.999 32c37.333 0 74.5 -6.5 111.5 -19.5s64.833 -32.833 83.5 -59.5
c16.667 -22.667 25 -59.334 25 -110.001c0 -40 -16.333 -77.333 -49 -112c-21.333 -22 -44.333 -44.167 -69 -66.5s-48.334 -48.5 -71.001 -78.5c-38.667 13.333 -92.5 23.666 -161.5 30.999s-144.833 11.666 -227.5 12.999zM1060 787.003
c114.667 -2 208.665 -7.66699 281.998 -17s139.333 -20.333 198 -33c36.667 36 77.334 70.333 122.001 103s76 60.667 94 84c32 43.333 48 97.333 48 162c0 59.333 -14.333 109 -43 149c-51.333 75.333 -129.666 113 -234.999 113c-61.333 0 -125.333 -13.333 -192 -40
c-60.667 -24 -104.667 -50 -132 -78c-56.667 -54.667 -98 -126.667 -124 -216c-10 -30.667 -15.5 -69.667 -16.5 -117s-1.5 -84 -1.5 -110zM1518 614.003c-122.667 34 -286.001 51 -490.001 51c-205.333 0 -370.666 -17.333 -495.999 -52l15 -101
c126 32.667 286.333 49 481 49c194 0 352 -16 474 -48zM1544 315.003l-30.001 118.001c-130 30 -293.333 45 -490 45c-194.667 0 -357.334 -15 -488.001 -45l-32 -119c126.667 38.667 300.334 58 521.001 58c106 0 204.333 -5.33301 295 -16
s165.334 -24.334 224.001 -41.001zM462.999 522.004l-32.998 187.001c-0.666992 0 -1.66699 1.33301 -3 4c-3.33301 4.66699 -12.833 10.834 -28.5 18.501s-33.834 20.834 -54.501 39.501c-29.333 24.667 -52.166 44.667 -68.499 60s-31.166 32 -44.499 50
c-40.667 56 -63.334 123.667 -68.001 203c-6.66699 76.667 24.333 153 93 229c69.333 76 163 111.667 281 107c44 -2.66699 95.667 -13.334 155 -32.001l59.5 -23.5l60.5 -23.5c10.667 -5.33301 20 -10.666 28 -15.999c-3.33301 14 -5 28 -5 42c0 52 18.5 96.333 55.5 133
s81.5 55.334 133.5 56.001c52 0 96.333 -18.5 133 -55.5s55 -81.167 55 -132.5c0 -10.667 -1.33301 -24.667 -4 -42c9.33301 6 18.333 11 27 15c30.667 13.333 71 29 121 47c57.333 19.333 109 30.333 155 33c118 5.33301 211.333 -30.334 280 -107.001
c67.333 -76 98.666 -152.333 93.999 -229c-5.33301 -79.333 -28.333 -147 -69 -203c-13.333 -18 -28.333 -34.833 -45 -50.5s-39 -35.5 -67 -59.5c-22 -18.667 -40.667 -31.834 -56 -39.501s-24.333 -13.834 -27 -18.501c-0.666992 -1.33301 -1.33398 -2.33301 -2.00098 -3
s-1 -1.33398 -1 -2.00098l-32 -188l66 -247c-33.333 -30 -108 -54.667 -224 -74s-250 -29 -402 -29c-154.667 0 -290.667 10.167 -408 30.5s-191 45.833 -221 76.5zM988.001 788.005c0 26.667 -0.667969 63.501 -2.00098 110.501s-6.33301 86.167 -15 117.5
c-27.333 89.333 -68.666 161.333 -123.999 216c-28.667 28 -72.667 54 -132 78c-68 26.667 -132.333 40 -193 40c-105.333 0 -183.333 -37.667 -234 -113c-28.667 -40 -43 -90 -43 -150c0 -65.333 16 -119 48 -161c16.667 -24 48.667 -53.667 96 -89s87.333 -68 120 -98
c58 12.667 123.5 23.667 196.5 33s167.167 14.666 282.5 15.999zM1024 1039.01c4.66699 18.667 8.66406 31.668 11.9971 39.001c6.66699 26 14.334 48 23.001 66c4 11.333 9.83301 24.5 17.5 39.5s15.834 32.167 24.501 51.5c5.33301 11.333 11 25.166 17 41.499l18 48.5
c5.33301 13.333 8 27.666 8 42.999c0 32.667 -11.667 60.5 -35 83.5s-51.666 34.5 -84.999 34.5c-79.333 0 -119 -39.667 -119 -119c0 -15.333 2.66699 -29.666 8 -42.999c14.667 -43.333 26 -73.333 34 -90l24 -51.5l19 -39.5c8.66699 -22 16 -44 22 -66
c1.33301 -4 5.33301 -16.667 12 -38zM1059 1559.01h-71v131h-83c-22.667 0 -34 11 -34 33v1c0 22 11.333 33 34 33h83v85c0 23.333 12 35 36 35v0c23.333 0 35 -11.667 35 -35v-85h86c22 0 33 -11 33 -33v-1c0 -22 -11 -33 -33 -33l-85 -1zM911.997 865.007
c-83.333 -1.33301 -159.499 -5.66797 -228.499 -13.001s-122.5 -17.666 -160.5 -30.999c-20 24.667 -43.167 49.5 -69.5 74.5s-49.5 48.5 -69.5 70.5c-33.333 34 -50 71.333 -50 112c0 50 8.33301 86.667 25 110c18 26.667 45.667 46.5 83 59.5s75 19.5 113 19.5
c48 0 94 -10.667 138 -32c43.333 -22.667 72 -40.667 86 -54c45.333 -46 80.666 -96 105.999 -150c8.66699 -20 15.167 -47.833 19.5 -83.5s6.83301 -63.167 7.5 -82.5zM1024 1210c-1.33301 6.66699 -3 12.332 -5 16.999c-4 13.333 -7.33301 23 -10 29
c-2 4.66699 -4.66699 10.5 -8 17.5s-6.66602 14.5 -9.99902 22.5c-2 4.66699 -4.5 10.834 -7.5 18.501s-5.5 14.834 -7.5 21.501c-2 6 -3 12.333 -3 19c0 35.333 17 53 51 53c35.333 0 53 -17.333 53 -52c0 -8.66699 -1.33301 -15 -4 -19
c-9.33301 -25.333 -14.333 -39 -15 -41c-10 -20 -16.333 -33 -19 -39c-4.66699 -10.667 -7.66699 -20.334 -9 -29.001c-2 -4 -3.33301 -7.5 -4 -10.5s-1.33398 -5.5 -2.00098 -7.5z" />
    <glyph glyph-name="m" unicode="m" 
d="M490 683c2.66699 6 7 15.002 13 27.002c11.333 28 17 44.667 17 50c-1.33301 18.667 -11 28 -29 28c-13.333 0 -29 -19 -47 -57c-2.66699 -5.33301 -6.66699 -10 -12 -14c-18 -18.667 -15.333 -34.334 8 -47.001v0c21.333 -12.667 38 -8.33398 50 12.999zM1080 1054
c46.667 61.333 69.6689 129.667 69.002 205c-2.66699 22 -15.334 33 -38.001 33c-30.667 0 -42.667 -11.333 -36 -34c2 -36.667 -1.66699 -67 -11 -91c-15.333 -38 -32.333 -66.333 -51 -85c-10 -20 -4 -34.667 18 -44v0c21.333 -10 37.666 -4.66699 48.999 16z
M819.002 1542c-3.33301 24 -2.66699 50.001 2 78.001c-40 -8 -77.667 -26.667 -113 -56c-21.333 -11.333 -26.333 -27 -15 -47c11.333 -20.667 27 -24 47 -10l38.5 20.5c11.667 6.33301 25.167 11.166 40.5 14.499zM1756 274.004
c-0.666992 0 -0.000976562 18.167 1.99902 54.5s3 75.5 3 117.5c0.666992 83.333 0.666992 169.5 0 258.5s-12.667 177.833 -36 266.5c-22.667 85.333 -47.667 158.166 -75 218.499s-57 112.5 -89 156.5c-48 72 -113.333 133 -196 183s-169 82.667 -259 98
c2.66699 -15.333 3.5 -31 2.5 -47s-0.833008 -31.333 0.5 -46c64.667 -22 125.667 -49.333 183 -82s99.333 -68 126 -106c32 -44 61.667 -96.167 89 -156.5s52.333 -133.166 75 -218.499c22.667 -88.667 34.334 -177.5 35.001 -266.5s1 -175.167 1 -258.5
c0 -42 -1 -81.167 -3 -117.5s-2 -54.5 0 -54.5h141zM1079 1697c104.667 -6.66699 201.667 -33.6689 291 -81.002s165.333 -108 228 -182c44 -52 85.5 -114.667 124.5 -188s70.167 -151 93.5 -233c26.667 -95.333 43.5 -195.5 50.5 -300.5s10.5 -202.167 10.5 -291.5v-218
h-155.5h-403.5h-671c-6 0 -8.83301 16.333 -8.5 49s2.5 59 6.5 79c2.66699 16 9 38.667 19 68s26.667 65 50 107c10.667 21.333 36 52.5 76 93.5l138 142.5c30 30.667 53.5 69.334 70.5 116.001s24.167 89 21.5 127c-24.667 -20 -51.667 -36.333 -81 -49
c-141.333 -50.667 -243.666 -124 -306.999 -220c-4.66699 -6 -19.667 -33 -45 -81c-13.333 -25.333 -24.666 -42.666 -33.999 -51.999c-12.667 -12.667 -31 -19.667 -55 -21c-37.333 -2 -66.333 16 -87 54c-28 -8 -53 -11.333 -75 -10c-37.333 14 -64.333 29 -81 45
c-34 34 -56.167 68 -66.5 102s-15.5 70.667 -15.5 110c0 56 34.667 130 104 222c81.333 106 124.666 186.667 129.999 242c0 24 2.33301 51 7 81c4 20.667 12.333 40.667 25 60c8.66699 13.333 14.5 22.5 17.5 27.5s8.5 12.5 16.5 22.5c6 8 11 14.167 15 18.5
s9 10.166 15 17.499c7.33301 8.66699 16.666 18.667 27.999 30c-35.333 97.333 -49.666 197.666 -42.999 300.999c132.667 -47.333 244 -121.666 334 -222.999c22 75.333 65.333 136.333 130 183c53.333 -37.333 95.666 -86.666 126.999 -147.999zM404 861.002
c19.333 13.333 21.334 29.334 6.00098 48.001c-16 15.333 -33.667 16.666 -53 3.99902c-40.667 -26.667 -62.334 -61.667 -65.001 -105c0.666992 -22 13.667 -32.333 39 -31c24 2 35.667 14.333 35 37c5.33301 21.333 18 37 38 47zM656.001 1359l21.999 11.0029
c20 8 26.333 22.667 19 44c-8 20 -23.333 26.667 -46 20c-78.667 -28.667 -133 -81.334 -163 -158.001c-4.66699 -22 3.33301 -37 24 -45c20.667 -6.66699 34.667 0.666016 42 21.999c5.33301 11.333 9.33301 18.666 12 21.999c7.33301 -6 17 -10 29 -12
c40.667 -6.66699 64.334 11.333 71.001 54c2 14.667 -1.33301 28.667 -10 42z" />
    <glyph glyph-name="n" unicode="n" 
d="M697 1359c8.66699 -13.333 12.001 -27.3359 10.001 -42.0029c-6.66699 -42.667 -30.334 -60.667 -71.001 -54c-12 2 -21.667 6 -29 12c-2.66699 -3.33301 -6.66699 -10.666 -12 -21.999c-7.33301 -21.333 -21.333 -28.666 -42 -21.999c-20.667 8 -28.667 23 -24 45
c30 76.667 84.333 129.334 163 158.001c22.667 6.66699 37.667 0 45 -20c8 -21.333 2 -36 -18 -44l-11 -5.5zM400.001 881.997c-19.333 -12 -31.002 -28 -35.002 -48c0.666992 -22 -9.66602 -34 -30.999 -36c-23.333 -2.66699 -35.333 7.33301 -36 30
c2.66699 44 22.334 79 59.001 105c17.333 14 33.333 12.667 48 -4c14.667 -18 13 -33.667 -5 -47zM1079 1697c104.667 -6.66699 201.667 -33.6689 291 -81.002s165.333 -108 228 -182c44 -52 85.5 -114.667 124.5 -188s70.167 -151 93.5 -233
c26.667 -95.333 43.5 -195.5 50.5 -300.5s10.5 -202.167 10.5 -291.5v-218h-155.5h-403.5h-671c-6 0 -8.83301 16.333 -8.5 49s2.5 59 6.5 79c2.66699 16 9 38.667 19 68s26.667 65 50 107c10.667 21.333 36 52.5 76 93.5l138 142.5c30 30.667 53.5 69.334 70.5 116.001
s24.167 89 21.5 127c-24.667 -20 -51.667 -36.333 -81 -49c-141.333 -50.667 -243.666 -124 -306.999 -220c-4.66699 -6 -19.667 -33 -45 -81c-13.333 -25.333 -24.666 -42.666 -33.999 -51.999c-12.667 -12.667 -31 -19.667 -55 -21c-37.333 -2 -66.333 16 -87 54
c-28 -8 -53 -11.333 -75 -10c-37.333 14 -64.333 29 -81 45c-34 34 -56.167 68 -66.5 102s-15.5 70.667 -15.5 110c0 56 34.667 130 104 222c81.333 106 124.666 186.667 129.999 242c0 24 2.33301 51 7 81c4 20.667 12.333 40.667 25 60
c8.66699 13.333 14.5 22.5 17.5 27.5s8.5 12.5 16.5 22.5c6 8 11 14.167 15 18.5s9 10.166 15 17.499c7.33301 8.66699 16.666 18.667 27.999 30c-35.333 97.333 -49.666 197.666 -42.999 300.999c132.667 -47.333 244 -121.666 334 -222.999
c22 75.333 65.333 136.333 130 183c53.333 -37.333 95.666 -86.666 126.999 -147.999zM1756 273.995c-0.666992 0 0.00292969 18.167 2.00293 54.5s3 75.5 3 117.5c0.666992 83.333 0.666992 169.5 0 258.5s-12.667 177.833 -36 266.5
c-22.667 85.333 -47.667 158.166 -75 218.499s-57 112.5 -89 156.5c-48 72 -113.333 133 -196 183s-169 82.667 -259 98c6 -32.667 8.66699 -64.667 8 -96c-1.33301 -24 -12.666 -36 -33.999 -36c-24.667 0 -35.667 12 -33 36c2 88 -29.333 163.333 -94 226
c-50.667 -53.333 -78 -115.333 -82 -186c-1.33301 -23.333 -13.333 -33.666 -36 -30.999c-21.333 0.666992 -32 13 -32 37l2 8c-27.333 -8.66699 -56 -21 -86 -37c-19.333 -13.333 -35 -10 -47 10s-6.66699 35.667 16 47l65 33c-57.333 58.667 -122.666 106 -195.999 142
c8 -92.667 33.333 -180.334 76 -263.001c11.333 -17.333 8.66602 -32.666 -8.00098 -45.999c-18.667 -14.667 -34.334 -12.334 -47.001 6.99902c-4.66699 6.66699 -11.334 18.667 -20.001 36c-14 -14 -23.333 -24.333 -28 -31c-4.66699 -6 -12.834 -19.333 -24.501 -40
s-20.167 -37.667 -25.5 -51c-6 -16.667 -8.5 -30.167 -7.5 -40.5s1.83301 -21.833 2.5 -34.5c-6 -39.333 -19.5 -76.333 -40.5 -111l-80.5 -127l-72 -108c-16.667 -24 -29.334 -54.667 -38.001 -92c-6 -22.667 -6 -50.167 0 -82.5s19 -57.5 39 -75.5
c30.667 -31.333 60.334 -45.666 89.001 -42.999c9.33301 0 21.833 3.66699 37.5 11s27.834 21.333 36.501 42c17.333 38 31.666 57 42.999 57c16.667 0 25.667 -9.33301 27 -28c0 -4 -5.33301 -20.667 -16 -50c-6 -13.333 -14 -27.333 -24 -42
c-12.667 -17.333 -18.334 -24.666 -17.001 -21.999c10.667 -38 28.334 -44.667 53.001 -20c7.33301 7.33301 15.666 21 24.999 41s24 47 44 81c23.333 39.333 48.333 71.333 75 96s50.334 44.667 71.001 60c12 8.66699 26.667 18.667 44 30s40.666 23 69.999 35
c23.333 9.33301 49.166 20.833 77.499 34.5s53.5 31.167 75.5 52.5c30.667 30 54.334 67 71.001 111c8.66699 24.667 12 55 10 91c-6 22.667 5.33301 34 34 34c21.333 0 33.333 -11 36 -33c0 -75.333 -21.333 -144 -64 -206c14 -42.667 17.667 -89.334 11 -140.001
c-6 -40.667 -20.167 -84.167 -42.5 -130.5s-67.5 -97.833 -135.5 -154.5c-138 -114.667 -203.333 -232.667 -196 -354h170.5h320.5h547z" />
    <glyph glyph-name="o" unicode="o" 
d="M1024 205l-540.001 -0.000976562c-26.667 66.667 -40 136.334 -40 209.001c0 123.333 35 234 105 332s160 168 270 210c-47.333 22 -85.833 55.167 -115.5 99.5s-44.5 94.5 -44.5 150.5c0 70 23.333 130.667 70 182s104 81 172 89c-54 40.667 -81 94.334 -81 161.001
c0 56 19.833 104 59.5 144s87.834 60 144.501 60c56 0 104 -20 144 -60s60 -88 60 -144c0 -66.667 -27 -120.334 -81 -161.001c68 -8 125.333 -37.667 172 -89s70 -112 70 -182c0 -56 -15.167 -106.167 -45.5 -150.5s-68.833 -77.5 -115.5 -99.5c110 -42 200 -112 270 -210
s105 -208.667 105 -332c0 -72 -13 -141.667 -39 -209h-540z" />
    <glyph glyph-name="p" unicode="p" 
d="M1024 273l491.002 0.000976562c14 48 21 95 21 141c0 104 -28.833 198.333 -86.5 283s-131.834 147 -222.501 187c-44 3.33301 -66 27.333 -66 72c0 35.333 22.333 61.333 67 78c62 43.333 93 100.666 93 171.999c0 51.333 -17.333 96.333 -52 135s-76.667 61 -126 67
c-40 3.33301 -60 26 -60 68c0 18.667 7.33301 36 22 52c36 28 54 64.667 54 110c0 37.333 -13.333 69.333 -40 96s-58.334 40 -95.001 40c-38 0 -70.167 -13.333 -96.5 -40s-39.5 -58.667 -39.5 -96c0 -44.667 18 -81.334 54 -110.001c14.667 -14.667 22 -32 22 -52
c0 -42 -19.667 -64.667 -59 -68c-50 -6 -92.167 -28.333 -126.5 -67s-51.5 -83.667 -51.5 -135c0 -71.333 31 -128.666 93 -171.999c44.667 -17.333 67 -43.333 67 -78c0 -44.667 -22.333 -68.667 -67 -72c-90.667 -40 -164.667 -102.333 -222 -187s-86 -179 -86 -283
c0 -49.333 7 -96.333 21 -141h491zM1024 205.001l-540.001 -0.000976562c-26.667 66.667 -40 136.334 -40 209.001c0 123.333 35 234 105 332s160 168 270 210c-47.333 22 -85.833 55.167 -115.5 99.5s-44.5 94.5 -44.5 150.5c0 70 23.333 130.667 70 182s104 81 172 89
c-54 40.667 -81 94.334 -81 161.001c0 56 19.833 104 59.5 144s87.834 60 144.501 60c56 0 104 -20 144 -60s60 -88 60 -144c0 -66.667 -27 -120.334 -81 -161.001c68 -8 125.333 -37.667 172 -89s70 -112 70 -182c0 -56 -15.167 -106.167 -45.5 -150.5
s-68.833 -77.5 -115.5 -99.5c110 -42 200 -112 270 -210s105 -208.667 105 -332c0 -72 -13 -141.667 -39 -209h-540z" />
    <glyph glyph-name="q" unicode="q" 
d="M1024 1621c-38 0 -70.167 13.333 -96.5 40s-39.5 59 -39.5 97c0 37.333 13.167 69.333 39.5 96s58.5 40 96.5 40c37.333 0 69.5 -13.333 96.5 -40s40.5 -58.667 40.5 -96c0 -38 -13.5 -70.333 -40.5 -97s-59.167 -40 -96.5 -40zM1024 1691c44.667 0 67 22.333 67 67
c0 44 -22.333 66 -67 66c-44 0 -66 -22 -66 -66c0 -44.667 22 -67 66 -67zM1533 684c-128.667 32.667 -297.001 49 -505.001 49c-213.333 0 -383.666 -16.667 -510.999 -50l15 -96c130 30.667 295.333 46 496 46c199.333 0 362 -15 488 -45zM1558 744l64.999 115
c-32 -12.667 -64.667 -19 -98 -19c-89.333 0 -160.666 36.333 -213.999 109c-40 -33.333 -84.667 -50 -134 -50c-64 0 -115 25 -153 75c-42.667 -46.667 -93.667 -70 -153 -70c-48 0 -92 16.333 -132 49c-56 -71.333 -128.333 -107 -217 -107c-34 0 -67.667 6.33301 -101 19
l70 -120c129.333 37.333 307 56 533 56c230 0 408 -19 534 -57zM1110 983l-84.999 489.001l-85 -483c2 1.33301 6.66699 4.66602 14 9.99902c15.333 30 38.666 45 69.999 45c34 0 56 -15 66 -45c4 -4 10.667 -9.33301 20 -16zM1387 964.001l-0.00195312 463l-165 -454
c12.667 4.66699 23.334 10.667 32.001 18c13.333 16.667 31.333 25 54 25c26.667 0 48 -11.667 64 -35c2 -2.66699 4.33301 -5.5 7 -8.5s5.33398 -5.83301 8.00098 -8.5zM824.997 978.001l-164 449v-457c2 2.66699 5 6 9 10c13.333 28 35.333 42 66 42
c25.333 0 46 -10.667 62 -32zM570.997 922.001l-215 371l55 -338c38 -26.667 75 -40 111 -40c14 0 30.333 2.33301 49 7zM1474 917.001c15.333 -4.66699 32.333 -7 51 -7c40.667 0 78.667 12.667 114 38l55 346zM1534 411.001l-30 113c-130.667 28.667 -290.667 43 -480 43
c-187.333 0 -347 -14.333 -479 -43l-31 -114c124 37.333 294.333 56 511 56c211.333 0 381 -18.333 509 -55zM1640 283.001c-32.667 -28.667 -106 -52.667 -220 -72s-245.333 -29 -394 -29c-151.333 0 -284.333 10 -399 30s-187 45 -217 75l63 240l-28 157l-88 153l-85 622
l49 19l274 -462l6 550l68 12l209 -553l112 595h69l112 -593l207 551l69 -12l6 -550l275 463l47 -22l-83 -619l-89 -153l-28 -159zM1559 319.001c-122 50.667 -299 76 -531 76c-236.667 0 -415.667 -26 -537 -78c116.667 -46 294.667 -69 534 -69
c114.667 0 219.5 6.33301 314.5 19s168.167 30 219.5 52zM603.997 1571c-38 0 -70.333 13.167 -97 39.5s-40 58.5 -40 96.5c0 37.333 13.333 69.333 40 96s59 40 97 40c37.333 0 69.333 -13.333 96 -40s40 -58.667 40 -96c0 -38 -13.333 -70.167 -40 -96.5
s-58.667 -39.5 -96 -39.5zM603.997 1641c44 0 66 22 66 66s-22 66 -66 66c-44.667 0 -67 -22 -67 -66s22.333 -66 67 -66zM1444 1641c44.667 0 67 22 67 66s-22.333 66 -67 66c-44 0 -66 -22 -66 -66s22 -66 66 -66zM1444 1571c-38 0 -70.167 13.167 -96.5 39.5
s-39.5 58.5 -39.5 96.5c0 37.333 13.167 69.333 39.5 96s58.5 40 96.5 40s70.333 -13.333 97 -40s40 -58.667 40 -96c0 -38 -13.333 -70.167 -40 -96.5s-59 -39.5 -97 -39.5zM235.997 1461c-38 0 -70.167 13.167 -96.5 39.5s-39.5 58.5 -39.5 96.5
c0 37.333 13.167 69.5 39.5 96.5s58.5 40.5 96.5 40.5s70.333 -13.5 97 -40.5s40 -59.167 40 -96.5c0 -38 -13.333 -70.167 -40 -96.5s-59 -39.5 -97 -39.5zM235.997 1531c44.667 0 67 22 67 66c0 44.667 -22.333 67 -67 67c-44 0 -66 -22.333 -66 -67c0 -44 22 -66 66 -66z
M1814 1531c44 0 66 22 66 66c0 44.667 -22 67 -66 67c-44.667 0 -67 -22.333 -67 -67c0 -44 22.333 -66 67 -66zM1814 1461c-38 0 -70.333 13.167 -97 39.5s-40 58.5 -40 96.5c0 37.333 13.333 69.5 40 96.5s59 40.5 97 40.5c37.333 0 69.333 -13.5 96 -40.5
s40 -59.167 40 -96.5c0 -38 -13.333 -70.167 -40 -96.5s-58.667 -39.5 -96 -39.5z" />
    <glyph glyph-name="r" unicode="r" 
d="M1161 1706h170v137h274v-375l-222 -171v-478l170 -170v-205h153v-239h-1365v239h153v205l171 170v478l-222 171v375h273v-137h171v137h274v-137zM1639 376h-1230v-103h1230v103zM1484 580h-920v-136h920v136zM1314 1297h-580v-478h580v478zM1536 1536v239h-137v-137h-308
v137h-135v-137h-307v137h-137v-239h1024zM1459 649l-103 102h-663l-105 -102h871zM1349 1365l127 103h-904l128 -103h649z" />
    <glyph glyph-name="s" unicode="s" 
d="M135 0h-102.999c0 20 -10.667 30.667 -32 32v103c37.333 -0.666992 69.166 -14.167 95.499 -40.5s39.5 -57.833 39.5 -94.5z" />
    <glyph glyph-name="t" unicode="t" 
d="M1161 1706h170v137h274v-375l-222 -171v-478l170 -170v-205h153v-239h-1365v239h153v205l171 170v478l-222 171v375h273v-137h171v137h274v-137zM564 460v-102h920v102h-920zM1024 1552h-512v-46l73 -55h879l71 55v46h-511zM1024 1383h-350l60 -47v-57h580v57l60 47h-350
zM1024 837h-290v-46l-60 -58h700l-60 58v46h-290zM1024 665h-414l-46 -43v-58h920v58l-46 43h-414z" />
    <glyph glyph-name="v" unicode="v" 
d="M1290 582l-42 102c-68 14.667 -142.667 22 -224 22c-80.667 0 -154.667 -7.33301 -222 -22l-42 -101c82.667 20.667 170.667 31 264 31c92 0 180.667 -10.667 266 -32zM1206 788l-29 70v27c-50.667 7.33301 -101.667 11 -153 11c-50 0 -100.667 -3.66699 -152 -11l-1 -27
l-27 -70c56.667 10 116.667 15 180 15c64 0 124.667 -5 182 -15zM1171 410c-26.667 20 -53.333 51.668 -80 95.001h-32c0 -32.667 7.66699 -64.334 23 -95.001h89zM965.001 410.001c15.333 32.667 23 64.334 23 95.001h-32c-26 -42.667 -53 -74.334 -81 -95.001h90z
M1024 392.001c-9.33301 -38 -20.668 -64.3311 -34.001 -78.998s-31 -30 -53 -46c-24 -16.667 -52.333 -30.834 -85 -42.501s-69 -14.5 -109 -8.5l-281 39c-11.333 1.33301 -21.5 1.33301 -30.5 0s-17.5 -2 -25.5 -2c-14 0 -31.833 -3.16699 -53.5 -9.5
s-38.5 -15.5 -50.5 -27.5l-97 159c12 13.333 22.667 22.666 32 27.999s20.333 11 33 17c38.667 18 80 29 124 33c18.667 1.33301 37 1.66602 55 0.999023s36.667 0 56 2c36 -6 72.167 -11.5 108.5 -16.5l109.5 -15.5c40 0 67 4 81 12c7.33301 4 19 11.333 35 22
s32 26.334 48 47.001c-35.333 4 -71.333 10.833 -108 20.5s-69 19.834 -97 30.501l104 258c-52 30 -88.333 54.167 -109 72.5s-37 39.5 -49 63.5c-17.333 30.667 -28.5 60.334 -33.5 89.001s-7.16699 54.334 -6.5 77.001c0.666992 40 10.167 84.167 28.5 132.5
s52.833 91.5 103.5 129.5c42 32 83 65 123 99s79.667 73.667 119 119c-49.333 25.333 -74 65.666 -74 120.999c0 37.333 13.167 69.333 39.5 96s58.5 40 96.5 40c37.333 0 69.333 -13.333 96 -40s40 -58.667 40 -96c0 -54.667 -24.667 -95 -74 -121
c38.667 -45.333 77.834 -85 117.501 -119s81.167 -67 124.5 -99c50 -38 84 -81.167 102 -129.5s27.667 -92.5 29 -132.5c0 -22.667 -2.33301 -48.334 -7 -77.001s-15.334 -58.334 -32.001 -89.001c-13.333 -24 -30.166 -45.167 -50.499 -63.5s-56.166 -42.5 -107.499 -72.5
l104 -258c-29.333 -10.667 -62.333 -20.834 -99 -30.501s-72 -16.5 -106 -20.5c15.333 -20.667 31 -36.334 47 -47.001s28 -18 36 -22c14 -8 41 -12 81 -12l108.5 15.5c36.333 5 72.833 10.5 109.5 16.5c18 -2 36.167 -2.66699 54.5 -2s37.166 0.333984 56.499 -0.999023
c42.667 -4 84 -15 124 -33c12 -6 22.833 -11.667 32.5 -17s20.5 -14.666 32.5 -27.999l-98 -159c-12 12 -28.833 21.167 -50.5 27.5s-39.167 9.5 -52.5 9.5c-8.66699 0 -17.5 0.666992 -26.5 2s-19.167 1.33301 -30.5 0l-280 -39c-40 -6 -77.167 -3.33301 -111.5 8
s-62.5 26.333 -84.5 45c-22 18 -39.5 33.5 -52.5 46.5s-23.833 38.5 -32.5 76.5zM986.999 1136v-85c0 -24.667 12.333 -37 37 -37v0c24.667 0 37 12.333 37 37v86h90c23.333 0 35 12 35 36v0c0 24 -11.667 36 -35 36h-90v90c0 24.667 -12.333 37 -37 37v0
c-24.667 0 -37 -12.333 -37 -37v-90h-88c-23.333 0 -35 -12 -35 -36v0c0 -24 11.667 -36 35 -36z" />
    <glyph glyph-name="w" unicode="w" 
d="M1588 793c-55.333 20 -133.166 36.499 -233.499 49.499s-211.166 19.5 -332.499 19.5c-118.667 0 -227.334 -6.16699 -326.001 -18.5s-176.334 -28.5 -233.001 -48.5l50 -91c56 16.667 128.667 28.667 218 36s187 11 293 11s204 -3.66699 294 -11
s163 -19.666 219 -36.999zM1814 1461c-38 0 -70.333 13.167 -97 39.5s-40 58.5 -40 96.5c0 37.333 13.333 69.5 40 96.5s59 40.5 97 40.5c37.333 0 69.333 -13.5 96 -40.5s40 -59.167 40 -96.5c0 -38 -13.333 -70.167 -40 -96.5s-58.667 -39.5 -96 -39.5zM236 1461
c-38 0 -70.167 13.167 -96.5 39.5s-39.5 58.5 -39.5 96.5c0 37.333 13.167 69.5 39.5 96.5s58.5 40.5 96.5 40.5s70.333 -13.5 97 -40.5s40 -59.167 40 -96.5c0 -38 -13.333 -70.167 -40 -96.5s-59 -39.5 -97 -39.5zM1444 1571c-38 0 -70.167 13.167 -96.5 39.5
s-39.5 58.5 -39.5 96.5c0 37.333 13.167 69.333 39.5 96s58.5 40 96.5 40s70.333 -13.333 97 -40s40 -58.667 40 -96c0 -38 -13.333 -70.167 -40 -96.5s-59 -39.5 -97 -39.5zM604 1571c-38 0 -70.333 13.167 -97 39.5s-40 58.5 -40 96.5c0 37.333 13.333 69.333 40 96
s59 40 97 40c37.333 0 69.333 -13.333 96 -40s40 -58.667 40 -96c0 -38 -13.333 -70.167 -40 -96.5s-58.667 -39.5 -96 -39.5zM1640 282.999c-32.667 -28.667 -106 -52.667 -220 -72s-245.333 -29 -394 -29c-151.333 0 -284.333 10 -399 30s-187 45 -217 75l63 240l-28 157
l-88 153l-85 622l49 19l274 -462l6 550l68 12l209 -553l112 595h69l112 -593l207 551l69 -12l6 -550l275 463l47 -22l-83 -619l-89 -153l-28 -159zM1544 314.999l-30.001 118.001c-130 30 -293.333 45 -490 45c-194.667 0 -357.334 -15 -488.001 -45l-32 -119
c126.667 38.667 300.334 58 521.001 58c106 0 204.333 -5.33301 295 -16s165.334 -24.334 224.001 -41.001zM1518 614c-122.667 34 -286.001 51 -490.001 51c-205.333 0 -370.666 -17.333 -495.999 -52l15 -101c126 32.667 286.333 49 481 49c194 0 352 -16 474 -48z
M1024 1621c-38 0 -70.167 13.333 -96.5 40s-39.5 59 -39.5 97c0 37.333 13.167 69.333 39.5 96s58.5 40 96.5 40c37.333 0 69.5 -13.333 96.5 -40s40.5 -58.667 40.5 -96c0 -38 -13.5 -70.333 -40.5 -97s-59.167 -40 -96.5 -40z" />
    <glyph glyph-name="x" unicode="x" 
d="M1170 1024l481.999 -482c48.667 -48.667 48.667 -97.334 0 -146.001v0c-48.667 -48.667 -97 -48.667 -145 0l-483 482l-482 -482c-48.667 -48.667 -97.667 -48.667 -147 0v0c-48 48.667 -48 97.667 0 147l482 482l-482 482c-48.667 48.667 -48.667 97.334 0 146.001v0
c48.667 48.667 97.334 48.667 146.001 0l483 -482l481 482c48.667 47.333 97.667 47.333 147 0v0c48 -50 48 -99 0 -147z" />
    <glyph glyph-name="cent" unicode="&#xa2;" horiz-adv-x="1815" 
d="M971 615c114.667 -2 208.665 -7.5 281.998 -16.5s139.333 -20.167 198 -33.5c36.667 36 77.334 70.333 122.001 103s76 60.667 94 84c32 42 48 96 48 162c0 60 -14.333 110 -43 150c-52 74.667 -130 112 -234 112c-64 0 -128.333 -13.333 -193 -40
c-58 -22 -102 -48 -132 -78c-56 -54.667 -97.333 -126.667 -124 -216c-9.33301 -30.667 -14.666 -69.667 -15.999 -117s-2 -84 -2 -110zM899.998 617c-0.666992 26 -1.66699 62.667 -3 110s-6.33301 86.333 -15 117c-27.333 89.333 -68.666 161.333 -123.999 216
c-30 30 -74 56 -132 78c-65.333 26.667 -129.666 40 -192.999 40c-105.333 0 -183.333 -37.667 -234 -113c-28.667 -40 -43 -89.667 -43 -149c0 -66 16 -120 48 -162c17.333 -23.333 49.666 -52.833 96.999 -88.5s87 -68.5 119 -98.5c58 13.333 123.667 24.5 197 33.5
s167.666 14.5 282.999 16.5zM445.998 347l-32 -115.001c58 16.667 132.667 30.334 224 41.001s191 16 299 16c217.333 0 390.333 -18.667 519 -56l-30 115l28 146c-131.333 34 -304.333 51 -519 51c-218.667 0 -391.667 -17 -519 -51zM970.998 1387l-71 1v130h-84
c-22.667 0 -34 11.333 -34 34v0c0 22.667 11.333 34 34 34h84v84c0 24 11.667 36 35 36v0c24 0 36 -12 36 -36v-84h85c22.667 0 34 -11.333 34 -34v0c0 -22.667 -11.333 -34 -34 -34l-84 -1zM935.998 866.999c6 22 9.99805 35.334 11.998 40.001c6.66699 24 14 46 22 66
c4.66699 10.667 10.667 23.5 18 38.5l25 51.5c4.66699 11.333 10 25.333 16 42l18 49c5.33301 12.667 8 26.667 8 42c0 79.333 -39.667 119 -119 119c-80 -1.33301 -120 -41.333 -120 -120c0 -15.333 2.66699 -29.333 8 -42c6 -16 11.833 -32.333 17.5 -49
s11.5 -30.667 17.5 -42c8 -19.333 15.833 -36.5 23.5 -51.5s13.834 -27.833 18.501 -38.5c8 -18.667 15.667 -40.667 23 -66c2.66699 -8 4.83398 -15.333 6.50098 -22s3.5 -12.334 5.5 -17.001zM1481 139c-124.667 52 -305.335 78 -542.002 78
c-241.333 0 -424 -26.667 -548 -80c117.333 -46.667 299.333 -70 546 -70c116.667 0 223.334 6.5 320.001 19.5s171.334 30.5 224.001 52.5zM373.995 350l-32.001 186.996c-1.33301 0 -2.66602 1.33301 -3.99902 4c-3.33301 4.66699 -12.666 11 -27.999 19
s-33.666 21 -54.999 39c-28.667 24.667 -51.334 44.834 -68.001 60.501s-31.334 32.5 -44.001 50.5c-41.333 56 -64.333 123.667 -69 203c-5.33301 76.667 26 153 94 229c68 76.667 161.333 112.334 280 107.001c42 -2 93.667 -13 155 -33l121 -47
c5.33301 -2.66699 14.333 -8 27 -16c-2.66699 18.667 -4 32.667 -4 42c0 52 18.333 96.5 55 133.5s81 55.5 133 55.5s96.5 -18.333 133.5 -55s55.5 -81 55.5 -133c0 -14 -1.66699 -28 -5 -42c12 8 21 13.333 27 16l60.5 23.5l60.5 23.5
c58.667 18.667 110.334 29.334 155.001 32.001c116.667 6 210.334 -29.667 281.001 -107c66.667 -75.333 97.667 -151.333 93 -228c-6 -80 -28.667 -148 -68 -204c-19.333 -25.333 -57 -62 -113 -110c-21.333 -18 -39.833 -31 -55.5 -39s-24.834 -14.333 -27.501 -19
c-0.666992 -0.666992 -1.33398 -1.5 -2.00098 -2.5l-1 -1.5l-32 -188l66 -248c-33.333 -29.333 -108 -53.666 -224 -72.999s-250 -29 -402 -29c-154 0 -289.667 10 -407 30s-191 45.333 -221 76z" />
    </font>
</defs>
</svg>
